<svg xmlns="http://www.w3.org/2000/svg" width="21.857" height="26" viewBox="0 0 21.857 26">
    <path d="M-6501.243-698.648a2.642 2.642 0 0 1 .054-.531h-7.291a.523.523 0 0 1-.454-.263.509.509 0 0 1 .008-.519l1.789-2.963a8.765 8.765 0 0 0 1.261-4.527v-2.6a7.265 7.265 0 0 1 5.162-6.929v-1.9a2.122 2.122 0 0 1 2.119-2.119 2.122 2.122 0 0 1 2.12 2.119v1.9a7.265 7.265 0 0 1 5.183 6.936v2.6a8.765 8.765 0 0 0 1.261 4.527l1.789 2.963a.51.51 0 0 1 .008.519.521.521 0 0 1-.454.263H-6496a2.642 2.642 0 0 1 .054.531 2.656 2.656 0 0 1-2.651 2.648 2.651 2.651 0 0 1-2.646-2.655zm1.061 0a1.591 1.591 0 0 0 1.589 1.588 1.59 1.59 0 0 0 1.589-1.588 1.608 1.608 0 0 0-.091-.531h-3a1.6 1.6 0 0 0-.087.531zm10.576-1.565l-1.317-2.179a9.8 9.8 0 0 1-1.41-5.059v-2.6a6.236 6.236 0 0 0-6.25-6.209 6.236 6.236 0 0 0-6.25 6.209v2.6a9.782 9.782 0 0 1-1.41 5.059l-1.317 2.179h6.973a.536.536 0 0 1 .319 0h3.35a.535.535 0 0 1 .319 0zm-10.046-18.668v1.667a7.362 7.362 0 0 1 1.07-.078 7.37 7.37 0 0 1 1.049.075v-1.664a1.059 1.059 0 0 0-1.06-1.059 1.058 1.058 0 0 0-1.06 1.059z" transform="translate(6509.511 721.5)" />
</svg>