<svg xmlns="http://www.w3.org/2000/svg" width="51.998" height="41.351" viewBox="0 0 51.998 41.351">
    <g>
        <path d="M49.7 52.421H2.3a2.3 2.3 0 0 0-2.3 2.3v5.155a2.3 2.3 0 0 0 2.3 2.3h.5V91.47a2.3 2.3 0 0 0 2.3 2.3h41.795a2.3 2.3 0 0 0 2.3-2.3V62.18h.5a2.3 2.3 0 0 0 2.3-2.3v-5.157a2.3 2.3 0 0 0-2.295-2.302zM46.9 91.47H5.1V62.18h41.8v29.29zm2.8-31.592H2.3v-5.155h47.4v5.155z" transform="translate(0 -52.421)"/>
    </g>
    <g transform="translate(19.609 18.561)">
        <path d="M203.309 241.527v-2.507a3.836 3.836 0 1 0-7.673 0v2.506a3.343 3.343 0 0 0-2.553 3.244v3.956a3.342 3.342 0 0 0 3.338 3.338h6.1a3.342 3.342 0 0 0 3.338-3.338v-3.956a3.343 3.343 0 0 0-2.55-3.243zm-5.6-2.506a1.765 1.765 0 1 1 3.529 0v2.412h-3.53v-2.413zm6.083 9.706a1.268 1.268 0 0 1-1.266 1.266h-6.1a1.267 1.267 0 0 1-1.266-1.266v-3.957a1.268 1.268 0 0 1 1.266-1.266h6.1a1.268 1.268 0 0 1 1.266 1.266z" transform="translate(-193.083 -235.184)"/>
    </g>
    <g transform="translate(8.309 13.23)">
        <path d="M92.867 182.688H82.855a1.036 1.036 0 1 0 0 2.072h10.012a1.036 1.036 0 0 0 0-2.072z" transform="translate(-81.819 -182.688)"/>
    </g>
    <g transform="translate(8.309 17.761)">
        <path d="M87.861 227.308h-5.006a1.036 1.036 0 1 0 0 2.072h5.006a1.036 1.036 0 0 0 0-2.072z" transform="translate(-81.819 -227.308)"/>
    </g>
</svg>
