<svg xmlns="http://www.w3.org/2000/svg" width="56.767" height="65.5" viewBox="0 0 56.767 65.5">
    <g transform="translate(-0.5)">
        <path d="M53.992,65.5H3.775A3.275,3.275,0,0,1,.5,62.225V3.275A3.275,3.275,0,0,1,3.775,0H53.992a3.275,3.275,0,0,1,3.275,3.275v58.95A3.275,3.275,0,0,1,53.992,65.5ZM3.775,2.183A1.092,1.092,0,0,0,2.683,3.275v58.95a1.092,1.092,0,0,0,1.092,1.092H53.992a1.092,1.092,0,0,0,1.092-1.092V3.275a1.092,1.092,0,0,0-1.092-1.092Zm0,0" />
        <path d="M79.442,42.917H33.592A1.092,1.092,0,0,1,32.5,41.825V33.092A1.092,1.092,0,0,1,33.592,32h45.85a1.092,1.092,0,0,1,1.092,1.092v8.733A1.092,1.092,0,0,1,79.442,42.917ZM34.683,40.733H78.35v-6.55H34.683Zm0,0" transform="translate(-27.633 -27.633)" />
        <path d="M42.325,392.733H33.592a1.092,1.092,0,0,1-1.092-1.092v-6.55A1.092,1.092,0,0,1,33.592,384h8.733a1.092,1.092,0,0,1,1.092,1.092v6.55A1.092,1.092,0,0,1,42.325,392.733Zm-7.642-2.183h6.55v-4.367h-6.55Zm0,0" transform="translate(-27.633 -331.6)" />
        <path d="M130.325,392.733h-8.733a1.092,1.092,0,0,1-1.092-1.092v-6.55A1.092,1.092,0,0,1,121.592,384h8.733a1.092,1.092,0,0,1,1.092,1.092v6.55A1.092,1.092,0,0,1,130.325,392.733Zm-7.642-2.183h6.55v-4.367h-6.55Zm0,0" transform="translate(-103.625 -331.6)" />
        <path d="M238.333,392.733H217.592a1.092,1.092,0,0,1-1.092-1.092v-6.55A1.092,1.092,0,0,1,217.592,384h20.742a1.092,1.092,0,0,1,1.092,1.092v6.55A1.092,1.092,0,0,1,238.333,392.733Zm-19.65-2.183h18.558v-4.367H218.683Zm0,0" transform="translate(-186.525 -331.6)" />
        <path d="M42.325,152.733H33.592a1.092,1.092,0,0,1-1.092-1.092v-6.55A1.092,1.092,0,0,1,33.592,144h8.733a1.092,1.092,0,0,1,1.092,1.092v6.55A1.092,1.092,0,0,1,42.325,152.733Zm-7.642-2.183h6.55v-4.367h-6.55Zm0,0" transform="translate(-27.633 -124.35)" />
        <path d="M130.325,152.733h-8.733a1.092,1.092,0,0,1-1.092-1.092v-6.55A1.092,1.092,0,0,1,121.592,144h8.733a1.092,1.092,0,0,1,1.092,1.092v6.55A1.092,1.092,0,0,1,130.325,152.733Zm-7.642-2.183h6.55v-4.367h-6.55Zm0,0" transform="translate(-103.625 -124.35)" />
        <path d="M226.325,152.733h-8.733a1.092,1.092,0,0,1-1.092-1.092v-6.55A1.092,1.092,0,0,1,217.592,144h8.733a1.092,1.092,0,0,1,1.092,1.092v6.55A1.092,1.092,0,0,1,226.325,152.733Zm-7.642-2.183h6.55v-4.367h-6.55Zm0,0" transform="translate(-186.525 -124.35)" />
        <path d="M314.325,152.733h-8.733a1.092,1.092,0,0,1-1.092-1.092v-6.55A1.092,1.092,0,0,1,305.592,144h8.733a1.092,1.092,0,0,1,1.092,1.092v6.55A1.092,1.092,0,0,1,314.325,152.733Zm-7.642-2.183h6.55v-4.367h-6.55Zm0,0" transform="translate(-262.517 -124.35)" />
        <path d="M42.325,232.733H33.592a1.092,1.092,0,0,1-1.092-1.092v-6.55A1.092,1.092,0,0,1,33.592,224h8.733a1.092,1.092,0,0,1,1.092,1.092v6.55A1.092,1.092,0,0,1,42.325,232.733Zm-7.642-2.183h6.55v-4.367h-6.55Zm0,0" transform="translate(-27.633 -193.433)" />
        <path d="M130.325,232.733h-8.733a1.092,1.092,0,0,1-1.092-1.092v-6.55A1.092,1.092,0,0,1,121.592,224h8.733a1.092,1.092,0,0,1,1.092,1.092v6.55A1.092,1.092,0,0,1,130.325,232.733Zm-7.642-2.183h6.55v-4.367h-6.55Zm0,0" transform="translate(-103.625 -193.433)" />
        <path d="M226.325,232.733h-8.733a1.092,1.092,0,0,1-1.092-1.092v-6.55A1.092,1.092,0,0,1,217.592,224h8.733a1.092,1.092,0,0,1,1.092,1.092v6.55A1.092,1.092,0,0,1,226.325,232.733Zm-7.642-2.183h6.55v-4.367h-6.55Zm0,0" transform="translate(-186.525 -193.433)" />
        <path d="M314.325,232.733h-8.733a1.092,1.092,0,0,1-1.092-1.092v-6.55A1.092,1.092,0,0,1,305.592,224h8.733a1.092,1.092,0,0,1,1.092,1.092v6.55A1.092,1.092,0,0,1,314.325,232.733Zm-7.642-2.183h6.55v-4.367h-6.55Zm0,0" transform="translate(-262.517 -193.433)" />
        <path d="M42.325,312.733H33.592a1.092,1.092,0,0,1-1.092-1.092v-6.55A1.092,1.092,0,0,1,33.592,304h8.733a1.092,1.092,0,0,1,1.092,1.092v6.55A1.092,1.092,0,0,1,42.325,312.733Zm-7.642-2.183h6.55v-4.367h-6.55Zm0,0" transform="translate(-27.633 -262.517)" />
        <path d="M130.325,312.733h-8.733a1.092,1.092,0,0,1-1.092-1.092v-6.55A1.092,1.092,0,0,1,121.592,304h8.733a1.092,1.092,0,0,1,1.092,1.092v6.55A1.092,1.092,0,0,1,130.325,312.733Zm-7.642-2.183h6.55v-4.367h-6.55Zm0,0" transform="translate(-103.625 -262.517)" />
        <path d="M226.325,312.733h-8.733a1.092,1.092,0,0,1-1.092-1.092v-6.55A1.092,1.092,0,0,1,217.592,304h8.733a1.092,1.092,0,0,1,1.092,1.092v6.55A1.092,1.092,0,0,1,226.325,312.733Zm-7.642-2.183h6.55v-4.367h-6.55Zm0,0" transform="translate(-186.525 -262.517)" />
        <path d="M314.325,312.733h-8.733a1.092,1.092,0,0,1-1.092-1.092v-6.55A1.092,1.092,0,0,1,305.592,304h8.733a1.092,1.092,0,0,1,1.092,1.092v6.55A1.092,1.092,0,0,1,314.325,312.733Zm-7.642-2.183h6.55v-4.367h-6.55Zm0,0" transform="translate(-262.517 -262.517)" />
    </g>
</svg>