<svg xmlns="http://www.w3.org/2000/svg" width="32.15" height="32.149" viewBox="0 0 32.15 32.149">
    <ellipse cx="16.075" cy="16.075" rx="16.075" ry="16.075" />
    <path style="fill: #ffffff;" d="M27.255,22.223c-.1-.157-.348-.251-.727-.439s-2.245-1.1-2.591-1.224-.6-.188-.854.188-.979,1.224-1.2,1.475-.442.283-.822.095a10.381,10.381,0,0,1-3.049-1.868,11.345,11.345,0,0,1-2.11-2.606c-.221-.376-.023-.58.166-.767.171-.169.38-.439.569-.659a2.522,2.522,0,0,0,.379-.628.686.686,0,0,0-.032-.659c-.095-.188-.854-2.04-1.17-2.793s-.631-.628-.853-.628-.474-.032-.727-.032a1.4,1.4,0,0,0-1.012.471,4.208,4.208,0,0,0-1.327,3.139,7.281,7.281,0,0,0,1.549,3.892c.189.251,2.623,4.174,6.478,5.681s3.856,1,4.551.941a3.836,3.836,0,0,0,2.561-1.788A3.137,3.137,0,0,0,27.255,22.223Z" transform="translate(-3.322 -3.266)" />
</svg>