<svg xmlns="http://www.w3.org/2000/svg" viewBox="0 0 26.523 18.467">
    <path d="M27.489 68.756h2.926a.879.879 0 0 0 .889-.889.861.861 0 0 0-.889-.867h-2.926a.878.878 0 1 0 0 1.756z" transform="translate(-21.936 -57.129)"/>
    <path d="M31.988 24H7.359a.926.926 0 0 0-.936.936v5.821a.936.936 0 0 0 0 .411v10.363a.926.926 0 0 0 .936.936h24.63a.926.926 0 0 0 .936-.936V24.936a.94.94 0 0 0-.937-.936zm-.936 16.618H8.295V31.9h22.758zm0-10.569H8.295v-4.177h22.758z" transform="translate(-6.4 -24)"/>
</svg>
