<svg xmlns="http://www.w3.org/2000/svg" width="58" height="58" viewBox="0 0 58 58">
    <path d="M67.769,36.047h-1.48v-9.99a4.129,4.129,0,0,0-4.072-4.19H61.1V15.19A4.011,4.011,0,0,0,57.282,11h-.249L14.823,21.854c-.012,0-.036.012-.047.012A4.163,4.163,0,0,0,11,26.056V64.81A4.129,4.129,0,0,0,15.072,69H62.218a4.153,4.153,0,0,0,4.19-4.19V54.559h1.361A1.162,1.162,0,0,0,69,53.328V37.289A1.239,1.239,0,0,0,67.769,36.047Zm-10.251-22.7a1.82,1.82,0,0,1,1.231,1.847v6.664H24.7l32.823-8.511ZM63.946,64.81a1.8,1.8,0,0,1-1.728,1.847H15.072a1.8,1.8,0,0,1-1.728-1.847V26.056a1.8,1.8,0,0,1,1.728-1.847H62.087a1.8,1.8,0,0,1,1.728,1.847v9.99H51.6a9.256,9.256,0,1,0,0,18.513H63.946V64.81Zm2.58-12.594H51.6a6.782,6.782,0,1,1,0-13.565H66.526Z" transform="translate(-11 -11)" />
</svg>