<svg xmlns="http://www.w3.org/2000/svg" viewBox="0 0 27.006 27.005">
    <path d="M23883.953 702.051a13.5 13.5 0 1 1 9.547 3.949 13.412 13.412 0 0 1-9.547-3.949zM23882 692.5a11.5 11.5 0 1 0 11.5-11.5 11.517 11.517 0 0 0-11.5 11.5zm9.162 5.238l-3.959-4.266-.1-.156a.5.5 0 0 1 0-.708l.715-.714a.487.487 0 0 1 .709 0l.053.054 2.791 2.994a.242.242 0 0 0 .354 0l6.809-7.056h.049a.487.487 0 0 1 .709 0l.713.708a.5.5 0 0 1 0 .714l-8.123 8.43a.5.5 0 0 1-.715 0z" transform="translate(-23879.996 -678.999)"/>
</svg>
