<svg xmlns="http://www.w3.org/2000/svg" width="52" height="35.45" viewBox="0 0 52 35.45">
    <path d="M42.513 644.431a4.8 4.8 0 0 0-3.388 1.4 4.7 4.7 0 0 0 0 6.734 4.82 4.82 0 0 0 3.388 1.4 4.765 4.765 0 0 0 0-9.53zm0 7.412a2.647 2.647 0 1 1 0-5.294 2.648 2.648 0 0 1 0 5.294zm1.228-23.284a1.028 1.028 0 0 0-.709-.275H37.6a1.062 1.062 0 0 0-1.059 1.059v8.683a1.062 1.062 0 0 0 1.059 1.059h8.619a1.062 1.062 0 0 0 1.059-1.059v-5.813a1.06 1.06 0 0 0-.349-.784zm1.419 8.407h-6.5v-6.576h3.96l2.541 2.287zm-28.5 7.465a4.8 4.8 0 0 0-3.388 1.4 4.7 4.7 0 0 0 0 6.734 4.82 4.82 0 0 0 3.388 1.4 4.765 4.765 0 0 0 0-9.53zm0 7.412a2.647 2.647 0 1 1 0-5.294 2.648 2.648 0 0 1 0 5.294zm-7.063-6.11H7.465v-2.817a1.059 1.059 0 0 0-2.118 0v3.875a1.062 1.062 0 0 0 1.059 1.059h3.187a1.059 1.059 0 0 0 0-2.118zm5.368-5.771A1.062 1.062 0 0 0 13.9 638.9H1.059a1.059 1.059 0 0 0 0 2.118H13.9a1.055 1.055 0 0 0 1.062-1.056zM3.208 636.14l12.844.074a1.069 1.069 0 0 0 1.069-1.048 1.049 1.049 0 0 0-1.048-1.069l-12.844-.074h-.01a1.059 1.059 0 0 0-.011 2.118zm2.16-4.807h12.844a1.059 1.059 0 0 0 0-2.118H5.368a1.059 1.059 0 0 0 0 2.118zm46.24-1.43l-7.581-6.279a1.043 1.043 0 0 0-.678-.244h-8.915v-3.812a1.062 1.062 0 0 0-1.059-1.059H6.406a1.062 1.062 0 0 0-1.059 1.059v7.751a1.059 1.059 0 0 0 2.118 0v-6.692h24.862v25.105h-8.683a1.059 1.059 0 0 0 0 2.118h12.929a1.059 1.059 0 0 0 0-2.118h-2.129V625.5h8.534l6.9 5.718-.074 14.5h-1.1a1.059 1.059 0 0 0 0 2.118h2.149a1.053 1.053 0 0 0 1.059-1.048L52 630.729a1.119 1.119 0 0 0-.392-.829z" transform="translate(0 -618.51)"/>
</svg>
