<svg xmlns="http://www.w3.org/2000/svg" width="59" height="59" viewBox="0 0 59 59">
    <path d="M55.543,47.477H53.7V22.586a1.152,1.152,0,0,0-1.152-1.152H46.785V5.762a1.152,1.152,0,0,0-1.152-1.152H22.586a1.152,1.152,0,0,0-1.152,1.152V47.477h-.777a8.018,8.018,0,0,0-3.832-3.832V3.457A3.461,3.461,0,0,0,13.367,0H3.457a3.457,3.457,0,0,0,0,6.914H9.91v36.73A8.067,8.067,0,1,0,20.656,54.391H55.543a3.457,3.457,0,1,0,0-6.914Zm-4.148,0H23.738V23.738H31.8V35.953a1.152,1.152,0,0,0,1.844.922l3.918-2.938,3.918,2.938a1.152,1.152,0,0,0,1.844-.922V23.738h8.066ZM34.109,23.738h6.914v9.91l-2.766-2.074a1.152,1.152,0,0,0-1.383,0l-2.766,2.074ZM31.8,6.914h4.609v6.6l-1.665-1.11a1.152,1.152,0,0,0-1.278,0L31.8,13.518Zm-2.3,0v8.758a1.152,1.152,0,0,0,1.792.959l2.818-1.878,2.818,1.878a1.152,1.152,0,0,0,1.792-.959V6.914H44.48v14.52H23.738V6.914ZM3.457,4.609a1.152,1.152,0,1,1,0-2.3h9.91A1.153,1.153,0,0,1,14.52,3.457V42.951a8.015,8.015,0,0,0-2.3,0V5.762a1.152,1.152,0,0,0-1.152-1.152ZM13.367,56.7a5.762,5.762,0,1,1,5.762-5.762A5.768,5.768,0,0,1,13.367,56.7Zm42.176-4.609H21.35a8.015,8.015,0,0,0,0-2.3H55.543a1.152,1.152,0,1,1,0,2.3Zm0,0" transform="translate(0 0)" />
</svg>