<svg xmlns="http://www.w3.org/2000/svg" width="19.928" height="14.305" viewBox="0 0 19.928 14.305">
    <g transform="translate(0.199 -0.5)">
        <path d="M9.764.5a10.081,10.081,0,0,1,5.672,1.825A13.026,13.026,0,0,1,19.58,7.356l.148.3-.148.3a13.026,13.026,0,0,1-4.143,5.031A9.719,9.719,0,0,1,9.764,14.8a9.961,9.961,0,0,1-5.672-1.825A13.1,13.1,0,0,1-.052,7.948l-.148-.3.148-.3A13.026,13.026,0,0,1,4.091,2.325,9.72,9.72,0,0,1,9.764.5Zm4.883,3.009A8.6,8.6,0,0,0,9.764,1.93,8.6,8.6,0,0,0,4.881,3.509a11.091,11.091,0,0,0-3.5,4.143,11.156,11.156,0,0,0,3.5,4.143,8.246,8.246,0,0,0,4.883,1.578A8.6,8.6,0,0,0,14.647,11.8a11.091,11.091,0,0,0,3.5-4.143,10.721,10.721,0,0,0-3.5-4.143Z" transform="translate(0 0)" />
        <path d="M15.642,6.4a4.38,4.38,0,0,1,3.009,1.233,4.17,4.17,0,0,1,1.233,3.009,4.38,4.38,0,0,1-1.233,3.009,4.213,4.213,0,0,1-3.009,1.282,4.129,4.129,0,0,1-3.009-1.282A4.17,4.17,0,0,1,11.4,10.642a4.38,4.38,0,0,1,1.233-3.009A4.088,4.088,0,0,1,15.642,6.4Zm2.022,2.22A2.86,2.86,0,1,0,15.642,13.5a3.007,3.007,0,0,0,2.022-.839,2.912,2.912,0,0,0,.839-2.022,3.007,3.007,0,0,0-.839-2.022Z" transform="translate(-5.878 -2.99)" />
    </g>
</svg>