<svg xmlns="http://www.w3.org/2000/svg" width="27.678" height="25.903" viewBox="0 0 27.678 25.903">
    <g transform="translate(-0.199 -0.3)">
        <path d="M14.039,6.869a1.136,1.136,0,0,1-1.226-.788,5.086,5.086,0,0,0-1.927-2.54,5.659,5.659,0,0,0-2.978-.876H7.47A4.678,4.678,0,0,0,3.879,4.5a7.426,7.426,0,0,0-1.226,4.2v.613c.263,3.766,1.927,5.255,5.868,8.671,1.577,1.4,3.416,3.066,5.518,5.168,2.19-2.1,4.029-3.766,5.518-5.168,3.941-3.5,5.518-4.992,5.868-8.671V8.708A7.426,7.426,0,0,0,24.2,4.5a4.678,4.678,0,0,0-3.591-1.839H20.17a4.849,4.849,0,0,0-2.978.963,5.086,5.086,0,0,0-1.927,2.54,1.173,1.173,0,0,1-1.226.7Zm.876,19.006a1.332,1.332,0,0,1-1.752,0c-2.628-2.628-4.642-4.467-6.306-5.956C2.477,15.978.55,14.226.2,9.584V8.8A9.745,9.745,0,0,1,1.952,3.1,7.333,7.333,0,0,1,7.294.3h.613a7.665,7.665,0,0,1,4.379,1.4,10.42,10.42,0,0,1,1.752,1.664A7.9,7.9,0,0,1,15.79,1.7,7.665,7.665,0,0,1,20.17.3h.613a7.175,7.175,0,0,1,5.343,2.8A9.161,9.161,0,0,1,27.877,8.8a2.425,2.425,0,0,1-.088.788c-.35,4.73-2.19,6.394-6.657,10.335-1.577,1.489-3.591,3.328-6.219,5.956Z" transform="translate(0 0)" />
    </g>
</svg>