<svg xmlns="http://www.w3.org/2000/svg" width="48.757" height="43.143" viewBox="0 0 48.757 43.143">
    <g transform="translate(-303 -676)">
        <g transform="translate(308.542 699.205)">
            <path d="M35.825 237.16a3.249 3.249 0 0 0-4.474.27l-3.184 3.418a3.256 3.256 0 0 0-3.1-2.287H19.38c-.431 0-.576-.165-1.325-.742a7.6 7.6 0 0 0-9.993.024l-2.089 1.839a3.237 3.237 0 0 0-2.979-.038l-2.4 1.2a1.084 1.084 0 0 0-.48 1.456l6.5 13a1.084 1.084 0 0 0 1.454.485l2.4-1.2a3.248 3.248 0 0 0 1.8-3.021h12.8a7.62 7.62 0 0 0 6.067-3.033l5.2-6.935a3.241 3.241 0 0 0-.51-4.436zM9.5 252.646l-1.426.714-5.537-11.06 1.427-.714a1.083 1.083 0 0 1 1.453.485l4.563 9.125a1.083 1.083 0 0 1-.48 1.45zm25.1-12.352l-5.2 6.935a5.442 5.442 0 0 1-4.334 2.167H11.5l-4.06-8.12 2.05-1.8a5.43 5.43 0 0 1 7.158 0 3.835 3.835 0 0 0 2.728 1.258h5.683a1.083 1.083 0 1 1 0 2.167H19.53a1.083 1.083 0 0 0 0 2.167h6.259a3.259 3.259 0 0 0 2.378-1.035l4.77-5.12a1.083 1.083 0 0 1 1.66 1.387z" transform="translate(0 -235.959)"/>
        </g>
        <g fill="transparent" stroke-width="2px"  stroke="#008aff" transform="translate(303 676)">
            <rect width="48.757" height="16.622"/>
            <rect width="46.757" height="14.622" x="1" y="1" rx="1"/>
        </g>
        <g fill="transparent" stroke-width="2px" stroke="#008aff" >
            <path d="M0 0h8.865v9.973H0z" transform="translate(322.947 677.108)"/>
            <path d="M1 1h6.865v7.973H1z" transform="translate(322.947 677.108)"/>
        </g>
    </g>
</svg>