<svg xmlns="http://www.w3.org/2000/svg" width="60.459" height="58.343" viewBox="0 0 60.459 58.343">
    <path d="M60.46,12.67H44.274a7.422,7.422,0,0,0-11.331-9.5l-3,3-3-3a7.423,7.423,0,0,0-11.331,9.5H0V27.52H5.3V59.34H56.217V27.52H60.46Zm-26.017-8a5.3,5.3,0,0,1,7.5,7.5l-.5.5h-15l5-5h0Zm-16.5,7.5a5.3,5.3,0,0,1,7.5-7.5l3,3-3.75,3.75a6.532,6.532,0,0,0-.616.731c-.057.077-.113.161-.169.243s-.13.177-.191.276H18.443ZM2.121,25.4V14.791H29.7V25.4H2.121ZM29.7,27.52V40.248H7.425V27.52H29.7ZM7.425,42.369H29.7v14.85H7.425Zm24.4,14.85V42.369H54.1v14.85ZM54.1,40.248H31.821V27.52H54.1ZM58.338,25.4H31.821V14.791H58.338Z" transform="translate(0 -0.998)" />
</svg>