<svg xmlns="http://www.w3.org/2000/svg" viewBox="0 0 26.875 26.882">
    <path d="M23.79 14.422v-3.339h.787a.787.787 0 0 0 .787-.787V7.2A2.365 2.365 0 0 0 23 4.837h-2.863a3.2 3.2 0 1 0-5.555-3.165L13.421 3.82 12.26 1.671a3.2 3.2 0 1 0-5.554 3.166H4A2.365 2.365 0 0 0 1.639 7.2v3.1a.787.787 0 0 0 .787.787h.787v4.773H.851a.787.787 0 0 0-.787.787V26.1a.787.787 0 0 0 .787.787H4a.787.787 0 0 0 .774-.647 18.581 18.581 0 0 0 4.846.647h7.031a5.538 5.538 0 0 0 4.4-2.191c.016-.02 5.4-6.608 5.418-6.628a2.361 2.361 0 0 0-2.678-3.642zM3.213 19.8v5.512H1.639v-7.877h1.574zM23 6.412a.788.788 0 0 1 .787.787v2.31h-7.923v-3.1zm-.787 4.672V15.7l-3.3 3.43a2.366 2.366 0 0 0-2.265-1.692h-.787v-6.355h6.351zm-6.247-8.661a1.608 1.608 0 0 1 1.349-.845 1.624 1.624 0 0 1 1.5 2.4 1.6 1.6 0 0 1-1.426.861h-2.727zm-3.252 3.989h1.575v11.023h-1.275a2.1 2.1 0 0 1-.3-.022zM9.451 1.576h.077a1.607 1.607 0 0 1 1.348.843l1.305 2.416H9.454a1.6 1.6 0 0 1-1.426-.861 1.624 1.624 0 0 1 1.423-2.398zM3.213 9.509V7.2A.788.788 0 0 1 4 6.412h7.14v3.1H3.213zm7.926 1.575v5.446a5.586 5.586 0 0 0-6.351 0v-5.446zm14.076 6.025l-5.4 6.6-.02.026a3.956 3.956 0 0 1-3.149 1.575H9.621a17.046 17.046 0 0 1-4.832-.7v-6.032l.549-.483a3.985 3.985 0 0 1 5.254 0 3.677 3.677 0 0 0 2.423.914h3.637a.787.787 0 0 1 0 1.575h-5.6a.787.787 0 1 0 0 1.575h6.124a2.37 2.37 0 0 0 1.724-.747l5.09-5.292a.788.788 0 0 1 1.364.536.779.779 0 0 1-.138.452z"/>
</svg>
