<svg xmlns="http://www.w3.org/2000/svg" width="34.438" height="34.437" viewBox="0 0 34.438 34.437">
    <path d="M17.218,0A17.218,17.218,0,1,1,0,17.218,17.219,17.219,0,0,1,17.218,0Z" />
    <g fill="#ffffff" transform="translate(6.488 6.488)">
        <path d="M14.892,0H6.319A6.326,6.326,0,0,0,0,6.319v8.573a6.326,6.326,0,0,0,6.319,6.319h8.573a6.326,6.326,0,0,0,6.319-6.319V6.319A6.326,6.326,0,0,0,14.892,0Zm4.185,14.892a4.185,4.185,0,0,1-4.185,4.185H6.319a4.185,4.185,0,0,1-4.185-4.185V6.319A4.185,4.185,0,0,1,6.319,2.134h8.573a4.185,4.185,0,0,1,4.185,4.185v8.573Z" />
        <path d="M138.486,133a5.486,5.486,0,1,0,5.486,5.486A5.492,5.492,0,0,0,138.486,133Zm0,8.838a3.352,3.352,0,1,1,3.352-3.352A3.352,3.352,0,0,1,138.486,141.838Z" transform="translate(-127.88 -127.88)" />
        <circle cx="1.315" cy="1.315" r="1.315" transform="translate(14.787 3.846)" />
    </g>
</svg>