<svg xmlns="http://www.w3.org/2000/svg" width="18.459" height="15.936" viewBox="0 0 18.459 15.936">
    <g transform="translate(0 -27.129)">
        <g transform="translate(0 27.129)">
            <path d="M110.735,208.066h0C110.733,208.077,110.734,208.075,110.735,208.066Z" transform="translate(-105.582 -199.651)" fill="none" />
            <path d="M122.091,56.721h-3.13a.553.553,0,0,1-.073,0,1.267,1.267,0,0,1-1.007-.522c-.231-.409-.051-.822.157-1.3a5.819,5.819,0,0,0,.574-2.832s0-.009,0-.014,0-.009,0-.014a.907.907,0,0,0-1.813,0c.041,1.492-.213,1.8-1.284,2.859l-.317.315a4.728,4.728,0,0,0-1.22,2.7.558.558,0,0,1-.557.519h-2.559s0,5.216,0,5.22h2.33a2.558,2.558,0,0,1,1.524.431,1.876,1.876,0,0,1,.355.421.789.789,0,0,0,.688.321s5.016-.014,5.358-.039a1.339,1.339,0,0,0,1.06-.54,1.3,1.3,0,0,0,.2-.452,54,54,0,0,0,.664-6.123A1.076,1.076,0,0,0,122.091,56.721Z" transform="translate(-105.705 -50.012)" fill="none" />
            <path d="M18.452,34.711A2.185,2.185,0,0,0,16.5,32.726a.552.552,0,0,0-.068,0H13.294l-.047-.007c.033-.081.073-.174.109-.257a6.905,6.905,0,0,0,.666-3.333h0a2.023,2.023,0,0,0-4.045.028s0,.005,0,.008,0,.005,0,.008c.031,1.077-.006,1.113-.952,2.047l-.322.319a5.7,5.7,0,0,0-1.469,2.893H4.475a1.479,1.479,0,0,0-.807-.239H1.488A1.49,1.49,0,0,0,0,35.677v5.075a1.49,1.49,0,0,0,1.488,1.488h2.18a1.481,1.481,0,0,0,.968-.359H7.528a1.258,1.258,0,0,1,.743.15,1.118,1.118,0,0,1,.173.215,1.9,1.9,0,0,0,1.6.807h.009s5.1.025,5.444,0a2.42,2.42,0,0,0,2.284-1.981A56.557,56.557,0,0,0,18.452,34.711ZM4.04,40.753a.373.373,0,0,1-.372.372H1.488a.373.373,0,0,1-.372-.372V35.677a.373.373,0,0,1,.372-.372h2.18a.373.373,0,0,1,.372.372v5.075Zm1.11-5.209h0C5.152,35.553,5.151,35.555,5.15,35.544Zm11.524,5.362a1.3,1.3,0,0,1-.2.452,1.339,1.339,0,0,1-1.06.54c-.342.025-5.358.039-5.358.039a.789.789,0,0,1-.688-.321A1.876,1.876,0,0,0,9.01,41.2a2.558,2.558,0,0,0-1.524-.431H5.156s0-5.22,0-5.22H7.715a.558.558,0,0,0,.557-.519,4.728,4.728,0,0,1,1.22-2.7l.317-.315c1.071-1.058,1.325-1.368,1.284-2.859a.907.907,0,0,1,1.813,0s0,.009,0,.014,0,.009,0,.014a5.819,5.819,0,0,1-.574,2.832c-.208.478-.389.891-.157,1.3a1.268,1.268,0,0,0,1.007.522.562.562,0,0,0,.073,0h3.13a1.076,1.076,0,0,1,.952.945A53.991,53.991,0,0,1,16.674,40.906Z" transform="translate(0 -27.129)" />
        </g>
    </g>
</svg>