<svg xmlns="http://www.w3.org/2000/svg" width="25.072" height="25" viewBox="0 0 25.072 25">
    <g transform="translate(0 0)">
        <path d="M3388.851,18.062l.017,0,.024,0,.042.005h.008l.075.008h0l.042,0,.031,0h.012l.042,0,.02,0,.023,0,.042,0h.017l.067,0h0l.075,0h.012l.042,0h.346l.042,0h.011l.076,0h0l.068,0H3390l.043,0,.023,0,.02,0,.043,0h.012l.03,0,.042,0h0l.073-.008h.009l.042-.005.023,0,.018,0a5.869,5.869,0,1,0-1.533,0Zm8.178-2.429a6.868,6.868,0,0,1,3.113,1.791l0,0a6.818,6.818,0,0,1,2.008,4.83V29.09H3377.08V22.252a6.821,6.821,0,0,1,2.008-4.826l0,0a6.858,6.858,0,0,1,3.112-1.788,8.15,8.15,0,1,1,14.824,0Zm-1.65,2.37a8.129,8.129,0,0,1-4.242,2.246l-.057.011-.229.038-.057.009-.175.023-.057.007-.049.006h-.01l-.055.006h0l-.059.006-.041,0-.018,0-.059,0-.053,0h-.006l-.059,0h-.012l-.1.006h0l-.06,0-.043,0h-.016l-.061,0h-.476l-.06,0h-.016l-.044,0-.059,0h0l-.1-.006h-.012l-.06,0h0l-.055,0-.059,0-.017,0-.042,0-.058-.006h0l-.054-.006h-.006l-.053-.006-.059-.007c-.155-.019-.308-.043-.46-.07l-.056-.011A8.139,8.139,0,0,1,3383.854,18c-.1-.1-.19-.2-.282-.3a4.542,4.542,0,0,0-2.871,1.322l0,0a4.542,4.542,0,0,0-1.336,3.219V26.81h20.515V22.252a4.544,4.544,0,0,0-1.34-3.219v0a4.541,4.541,0,0,0-2.871-1.322c-.092.1-.186.2-.283.3Z" transform="translate(-3377.08 -4.09)" />
    </g>
</svg>