<svg xmlns="http://www.w3.org/2000/svg" width="32" height="32" viewBox="0 0 32 32">
    <path d="M20.813,16A4.813,4.813,0,1,1,16,11.187,4.818,4.818,0,0,1,20.813,16M16,0a16,16,0,1,0,9.013,29.217l.046-.032L22.9,26.679l-.036.024a12.739,12.739,0,1,1,5.553-7.969,2.378,2.378,0,0,1-2.426,2.09,2.049,2.049,0,0,1-1.9-2.215V16a8.105,8.105,0,1,0-2.359,5.7,5.2,5.2,0,0,0,4,2.389,5.4,5.4,0,0,0,3.678-1.078,6.032,6.032,0,0,0,2.071-3.046c.063-.2.179-.672.18-.675l0-.017A14.157,14.157,0,0,0,32,16,16.019,16.019,0,0,0,16,0" />
</svg>