<svg xmlns="http://www.w3.org/2000/svg" width="23.335" height="23.334" viewBox="0 0 23.335 23.334">
    <path d="M22.395 7.158A11.816 11.816 0 0 0 19.841 3.4 11.534 11.534 0 0 0 11.666 0h-.077A11.667 11.667 0 0 0 0 11.782a11.641 11.641 0 0 0 11.667 11.553h.006a11.621 11.621 0 0 0 6.372-1.9l-1-1.526a9.8 9.8 0 0 1-5.376 1.6A9.844 9.844 0 0 1 11.6 1.823h.065a9.724 9.724 0 0 1 6.891 2.867 9.9 9.9 0 0 1 2.955 7.067v.343a2.848 2.848 0 0 1-5.7 0V6.335h-1.819v.921a4.1 4.1 0 0 0-6.38 3.409v2.005a4.1 4.1 0 0 0 7.437 2.385 4.67 4.67 0 0 0 8.286-2.955v-.344a11.653 11.653 0 0 0-.94-4.6zm-8.4 5.512a2.279 2.279 0 1 1-4.557 0v-2.005a2.279 2.279 0 1 1 4.557 0zm0 0"/>
</svg>
