<svg xmlns="http://www.w3.org/2000/svg" width="48.378" height="46.358" viewBox="0 0 48.378 46.358">
    <path d="M31.107 40.964v-.842a8.78 8.78 0 0 0 .687-.623 12.517 12.517 0 0 0 3.168-6.977 6.153 6.153 0 0 0 3.974-2.362c1.328-1.877 1.447-4.578.339-7.966a.916.916 0 0 0-.366-.476l-.5-.339a12.416 12.416 0 0 0-2.967-8.36c-2.463-2.774-6.245-4.175-11.253-4.194-5 0-8.79 1.419-11.253 4.157a12.416 12.416 0 0 0-2.967 8.36l-.5.339a.916.916 0 0 0-.366.476c-1.108 3.406-.989 6.089.339 7.966a6.171 6.171 0 0 0 3.974 2.39 12.526 12.526 0 0 0 3.169 6.987 8.934 8.934 0 0 0 .687.623v.842C13.765 41.642-.235 44.929 0 54.268a.916.916 0 0 0 .916.916H47.46a.916.916 0 0 0 .916-.916c.237-9.339-13.763-12.626-17.269-13.304zM12.858 30.471a3.974 3.974 0 0 1-1.941-1.419l.046.009c-.916-1.337-1-3.36-.183-6.034l.668-.449a.916.916 0 0 0 .4-.852 10.822 10.822 0 0 1 2.49-7.536c2.069-2.344 5.393-3.516 9.843-3.534s7.774 1.19 9.88 3.534a10.822 10.822 0 0 1 2.49 7.536.916.916 0 0 0 .4.852l.668.449c.815 2.664.76 4.7-.183 6.034a3.993 3.993 0 0 1-1.95 1.419 6.1 6.1 0 0 0 1.499-4.58 4.285 4.285 0 0 0-1.474-2.564c-.394-9.156-6.812-10.182-9.577-10.182a11.542 11.542 0 0 0-1.749.128 11.526 11.526 0 0 0-1.749-.128c-2.747 0-9.156 1.007-9.577 10.182a4.285 4.285 0 0 0-1.492 2.555 6.089 6.089 0 0 0 1.491 4.58zm20.83-7.508a18.862 18.862 0 0 1-10.942-2.747.916.916 0 0 0-1.19.119c-1.831 1.969-5.173 2.426-6.785 2.527.494-6.473 4.413-7.884 7.71-7.884a8.851 8.851 0 0 1 1.566.128.914.914 0 0 0 .366 0 8.894 8.894 0 0 1 1.566-.128c3.269 0 7.206 1.447 7.664 7.975zm-18.6 7.682l.037.009a.915.915 0 0 0-.229-.613c-1.254-1.438-1.831-2.747-1.676-3.827a2.426 2.426 0 0 1 .833-1.547c1.209 0 5.494-.229 8.241-2.6a20.647 20.647 0 0 0 10.163 2.747 12.074 12.074 0 0 0 1.886-.1 2.417 2.417 0 0 1 .824 1.5c.156 1.062-.421 2.39-1.676 3.827a.915.915 0 0 0-.229.613v.476l-5.329 2.857a2.637 2.637 0 1 0 .824 1.914q.006-.124 0-.247l4.2-2.252a10.073 10.073 0 0 1-2.454 4.834 8.158 8.158 0 0 1-6.071 2.271h-.458a8.177 8.177 0 0 1-6.061-2.262c-2.885-2.884-2.821-7.554-2.821-7.6zM26.931 35.9a.815.815 0 1 1-.815-.815.815.815 0 0 1 .815.815zm-3.662 17.4H1.861c.723-6.876 11.9-9.751 15.4-10.493v1.639c0 2.078 2.527 3.662 6.006 3.928zm-4.175-8.854v-3.161a11.07 11.07 0 0 0 4.862 1.025h.458a11.07 11.07 0 0 0 4.862-1.025v3.159c0 .87-1.987 2.124-5.091 2.124s-5.091-1.254-5.091-2.124zm6.006 8.879v-4.962c3.479-.238 6.006-1.831 6.006-3.928v-1.6c3.525.732 14.65 3.608 15.4 10.493H25.1z" transform="translate(0 -8.826)"/>
</svg>
