<svg xmlns="http://www.w3.org/2000/svg" width="62.152" height="31.362" viewBox="0 0 62.152 31.362">
    <rect fill="#ffffff" width="62.153" height="31.362" rx="5" />
    <g transform="translate(17.554 7.265)">
        <path fill="#e2574c" d="M16.9,63.17a8.449,8.449,0,1,1-8.449-8.451A8.449,8.449,0,0,1,16.9,63.17Z" transform="translate(0 -54.719)" />
        <path fill="#f4b459" d="M117.882,54.719a8.4,8.4,0,0,0-5.049,1.685h.007a7.24,7.24,0,0,1,.819.765L111.9,57.2a8.69,8.69,0,0,0-.763.9h3.1a7.855,7.855,0,0,1,.652.842h-4.313a8.415,8.415,0,0,0-.432.843h5.236a7.2,7.2,0,0,1,.363.816h-5.91a8.144,8.144,0,0,0-.235.894h6.392c.063.292.111.563.144.838h-6.663c-.028.278-.042.56-.042.845h6.753a7.422,7.422,0,0,1-.052.845h-6.659q.043.43.127.845h6.382c-.066.274-.142.549-.237.835h-5.929a8.205,8.205,0,0,0,.318.843h5.248a7.7,7.7,0,0,1-.492.842h-4.328a8.222,8.222,0,0,0,.564.848l3.113.046a8.224,8.224,0,0,1-.916.789c.017.014-.5,0-1.506-.018a8.449,8.449,0,1,0,6.066-14.328Z" transform="translate(-99.287 -54.719)" />
    </g>
</svg>