<svg xmlns="http://www.w3.org/2000/svg" width="16.99" height="18.081" viewBox="0 0 16.99 18.081">
    <path d="M2.951,0H14.039a2.944,2.944,0,0,1,2.082.866l0,0a2.944,2.944,0,0,1,.866,2.082V9.788a2.944,2.944,0,0,1-.866,2.082l0,0a2.944,2.944,0,0,1-2.082.866h-6.9L1.8,18.081V12.5A2.98,2.98,0,0,1,.69,11.679,2.938,2.938,0,0,1,0,9.788V2.951A2.944,2.944,0,0,1,.866.869l0,0A2.944,2.944,0,0,1,2.951,0ZM14.039,1.544H2.951a1.4,1.4,0,0,0-.993.411l0,0a1.4,1.4,0,0,0-.411.993V9.788a1.4,1.4,0,0,0,.328.9,1.414,1.414,0,0,0,.833.484l.636.114v3.065L6.5,11.2h7.54a1.4,1.4,0,0,0,.993-.411l0,0a1.4,1.4,0,0,0,.411-.993V2.951a1.4,1.4,0,0,0-.411-.993l0,0a1.4,1.4,0,0,0-.993-.411Z" transform="translate(0.001 0)" />
</svg>