<svg xmlns="http://www.w3.org/2000/svg" xmlns:xlink="http://www.w3.org/1999/xlink" width="62.152" height="31.362" viewBox="0 0 62.152 31.362">
    <rect fill="#ffffff" width="62.153" height="31.362" rx="5" transform="translate(0 0.085)" />
    <g transform="translate(11.806 10.172)">
        <path fill="#4db45e" d="M10.614,0V0A2.057,2.057,0,0,0,8.666,1.466C8.292,2.809,7.235,6.519,7.206,6.622H6.914S5.833,2.829,5.453,1.461A2.061,2.061,0,0,0,3.506,0H0V11.15H3.506V4.528H3.8L5.843,11.15H8.277l2.045-6.617h.292V11.15H14.12V0Z" />
        <path fill="#4db45e" d="M28.82,0A1.964,1.964,0,0,0,27.31,1.169L24.827,6.622h-.292V0H21.03V11.15H24.34A2.021,2.021,0,0,0,25.9,9.981l2.434-5.453h.292V11.15h3.506V0Z" transform="translate(15.629 0) translate(-21.03)" />
        <path fill="#4db45e" d="M38.063,6.813V12.9h3.506V9.345h3.8a3.793,3.793,0,0,0,3.579-2.532Z" transform="translate(28.288 5.064) translate(-38.063 -6.813)" />
        <path fill="#03a4db" d="M45.2,0H37.4a5.6,5.6,0,0,0,4.041,4.382h0a5.6,5.6,0,0,0,1.466.195h6.008a3.742,3.742,0,0,0,.078-.779A3.8,3.8,0,0,0,45.2,0Z" transform="translate(27.796 0) translate(-37.401)" />
    </g>
</svg>