<svg xmlns="http://www.w3.org/2000/svg" width="57.42" height="57.421" viewBox="0 0 57.42 57.421">
    <g transform="translate(-1331 -666.999)">
        <path d="M.293,54.691l54.4-54.4L56.828,2.43l-54.4,54.4Z" transform="translate(1331.15 667.149)" />
        <path d="M9.066,18.133A9.066,9.066,0,1,0,0,9.066,9.075,9.075,0,0,0,9.066,18.133Zm0-15.111A6.044,6.044,0,1,1,3.022,9.066,6.05,6.05,0,0,1,9.066,3.022Z" transform="translate(1331 667)" />
        <path d="M35.066,26a9.066,9.066,0,1,0,9.066,9.066A9.075,9.075,0,0,0,35.066,26Zm0,15.111a6.044,6.044,0,1,1,6.044-6.044A6.05,6.05,0,0,1,35.066,41.111Z" transform="translate(1344.288 680.287)" />
    </g>
</svg>