<svg xmlns="http://www.w3.org/2000/svg" width="62.152" height="31.362" viewBox="0 0 62.152 31.362">
    <rect fill="#ffffff" width="62.153" height="31.362" rx="5" transform="translate(0 0.085)" />
    <path fill="#ff8c00" d="M78.456,53.284V61.63a.226.226,0,0,1-.231.231h-1.7a.226.226,0,0,1-.231-.231V53.284a.226.226,0,0,1,.231-.231h1.7A.226.226,0,0,1,78.456,53.284Zm13.3-.231h-1.9a.228.228,0,0,0-.215.165l-1.5,4.941-1.653-4.941a.213.213,0,0,0-.215-.149H84.934a.235.235,0,0,0-.215.149l-1.653,4.941L81.53,53.218a.228.228,0,0,0-.215-.165h-1.9a.207.207,0,0,0-.182.1.219.219,0,0,0-.033.2l2.809,8.362a.213.213,0,0,0,.215.149h1.52a.235.235,0,0,0,.215-.149l1.636-4.875,1.636,4.875a.213.213,0,0,0,.215.149h1.52a.235.235,0,0,0,.215-.149L91.99,53.35a.211.211,0,0,0-.033-.2A.286.286,0,0,0,91.759,53.053Zm2.859,0h-1.7a.226.226,0,0,0-.231.231V61.63a.226.226,0,0,0,.231.231h1.7a.226.226,0,0,0,.231-.231V53.284A.226.226,0,0,0,94.618,53.053Zm-19.3,8.511a.169.169,0,0,1-.132.281H73.1a.266.266,0,0,1-.215-.1l-.347-.43a4.532,4.532,0,1,1,1.388-1.372Zm-4.148-1.851-.909-1.107a.18.18,0,0,1,.132-.3h1.917a2.413,2.413,0,1,0-2.281,1.686A2.2,2.2,0,0,0,71.168,59.713ZM60.162,61.531c.05.347-.066.5-.165.5-.116,0-.264-.149-.446-.413a.792.792,0,0,1-.149-.744.262.262,0,0,1,.331-.1C60.014,60.87,60.129,61.316,60.162,61.531Zm-1.619.76c.347.3.463.661.281.909a.576.576,0,0,1-.479.215.821.821,0,0,1-.545-.2.757.757,0,0,1-.2-.992.474.474,0,0,1,.38-.149A.806.806,0,0,1,58.543,62.291Zm-.595,2.875a7.4,7.4,0,0,1,5.007,2.148c.182.165.43-.033.264-.248a7.753,7.753,0,0,0-5.106-3.057,5.481,5.481,0,0,1-3.8-2.842c-.149-.248-.215-.2-.215.116a7.432,7.432,0,0,0,.1,1.421h-.248a5.247,5.247,0,1,1,5.239-5.239c0,.2-.017.413-.033.611a7.821,7.821,0,0,0-1.669-.033c-.2.017-.165.116-.017.132a3.679,3.679,0,0,1,3.206,3.338.042.042,0,0,0,.083.017A7.941,7.941,0,1,0,53.949,65.4C55.089,65.4,56.246,65.166,57.948,65.166Z" transform="translate(-39.001 -42.414)" />
</svg>