<svg xmlns="http://www.w3.org/2000/svg" width="16.387" height="15.779" viewBox="0 0 16.387 15.779">
    <path d="M8.6.3,10.621,5.26l5.361.506a.435.435,0,0,1,.4.4c0,.1,0,.2-.2.3l-4.046,3.54,1.214,5.26v.1a.435.435,0,0,1-.4.4h-.2L8.193,12.947,3.641,15.779h-.2a.435.435,0,0,1-.4-.4v-.1l1.214-5.26L.2,6.473c-.2-.2-.2-.3-.2-.4a.435.435,0,0,1,.4-.4l5.361-.506L7.788.2a.525.525,0,0,1,.4-.2c.2,0,.3.1.4.3Zm-.4,2.933L6.777,6.575l-3.641.4L5.968,9.407l-.91,3.54,3.136-1.922,3.136,1.922-.809-3.641,2.832-2.428-3.742-.3Z" />
</svg>