<svg xmlns="http://www.w3.org/2000/svg" width="95.246" height="15.461" viewBox="0 0 95.246 15.461">
    <g transform="translate(-324 -1477.116)">
        <g transform="translate(324 1477.116)">
            <path d="M8.49.707l2.062,4.881,5.28.454a.416.416,0,0,1,.237.729l-4,3.47,1.2,5.162a.416.416,0,0,1-.62.45L8.107,13.116,3.57,15.852a.416.416,0,0,1-.62-.45l1.2-5.162L.144,6.77a.416.416,0,0,1,.237-.729l5.28-.454L7.723.707a.416.416,0,0,1,.767,0Z" transform="translate(0 -0.452)" />
        </g>
        <g transform="translate(363.517 1477.116)">
            <path d="M8.49.707l2.062,4.881,5.28.454a.416.416,0,0,1,.237.729l-4,3.47,1.2,5.162a.416.416,0,0,1-.62.45L8.107,13.116,3.57,15.852a.416.416,0,0,1-.62-.45l1.2-5.162L.144,6.77a.416.416,0,0,1,.237-.729l5.28-.454L7.723.707a.416.416,0,0,1,.767,0Z" transform="translate(0 -0.452)" />
        </g>
        <g transform="translate(343.758 1477.116)">
            <path d="M8.49.707l2.062,4.881,5.28.454a.416.416,0,0,1,.237.729l-4,3.47,1.2,5.162a.416.416,0,0,1-.62.45L8.107,13.116,3.57,15.852a.416.416,0,0,1-.62-.45l1.2-5.162L.144,6.77a.416.416,0,0,1,.237-.729l5.28-.454L7.723.707a.416.416,0,0,1,.767,0Z" transform="translate(0 -0.452)" />
        </g>
        <g transform="translate(383.275 1477.116)">
            <path d="M8.49.707l2.062,4.881,5.28.454a.416.416,0,0,1,.237.729l-4,3.47,1.2,5.162a.416.416,0,0,1-.62.45L8.107,13.116,3.57,15.852a.416.416,0,0,1-.62-.45l1.2-5.162L.144,6.77a.416.416,0,0,1,.237-.729l5.28-.454L7.723.707a.416.416,0,0,1,.767,0Z" transform="translate(0 -0.452)" />
        </g>
        <g transform="translate(403.034 1477.116)">
            <path d="M8.49.707l2.062,4.881,5.28.454a.416.416,0,0,1,.237.729l-4,3.47,1.2,5.162a.416.416,0,0,1-.62.45L8.107,13.116,3.57,15.852a.416.416,0,0,1-.62-.45l1.2-5.162L.144,6.77a.416.416,0,0,1,.237-.729l5.28-.454L7.723.707a.416.416,0,0,1,.767,0Z" transform="translate(0 -0.452)" />
        </g>
    </g>
</svg>