<svg xmlns="http://www.w3.org/2000/svg" width="36.941" height="51.786" viewBox="0 0 36.941 51.786">
    <g transform="translate(-.079 -.001)">
        <path d="M.251 23.643a2.7 2.7 0 0 0 .782 3.009C2.68 28.3 6.067 34.25 7.744 38.442a24.263 24.263 0 0 0 5.563 7.518 4.283 4.283 0 0 1 1.279 3.062v.316a2.589 2.589 0 0 0 2.589 2.589h13.804a2.589 2.589 0 0 0 2.589-2.589v-2.651a.791.791 0 0 1 .23-.587c3.185-2.912 3.221-7.774 3.221-7.979V24.462a3.543 3.543 0 0 0-3.2-3.588 3.45 3.45 0 0 0-1.977.47V20a3.432 3.432 0 0 0-5.214-2.952 3.411 3.411 0 0 0-5.14-2.608v-1.428a6.816 6.816 0 0 0 3.452-5.953 6.9 6.9 0 0 0-13.806 0 6.817 6.817 0 0 0 3.451 5.954V26.9a9.546 9.546 0 0 1-.411 3.009.872.872 0 0 1-.622.58.831.831 0 0 1-.777-.2 12.264 12.264 0 0 1-1.784-2.138c-1.5-2.24-5.265-6.424-7.623-6.424a3.38 3.38 0 0 0-3.117 1.916zM12.86 7.059a5.177 5.177 0 1 1 10.354 0 5.125 5.125 0 0 1-1.726 3.864V7.059a3.451 3.451 0 1 0-6.9 0v3.864a5.126 5.126 0 0 1-1.728-3.864zm-3.307 22.05a14.019 14.019 0 0 0 2.039 2.437 2.553 2.553 0 0 0 2.38.621 2.6 2.6 0 0 0 1.838-1.7 11.238 11.238 0 0 0 .5-3.561V7.059a1.726 1.726 0 0 1 3.451 0v18.12a.863.863 0 1 0 1.726 0v-7.766a1.726 1.726 0 0 1 3.452 0v7.765a.863.863 0 1 0 1.726 0V20a1.726 1.726 0 1 1 3.451 0v6.04a.863.863 0 0 0 1.726 0v-1.724a1.711 1.711 0 0 1 .506-1.219 1.746 1.746 0 0 1 1.346-.5 1.837 1.837 0 0 1 1.6 1.867v13.66c0 .042-.044 4.314-2.661 6.706a2.518 2.518 0 0 0-.79 1.86v2.651a.863.863 0 0 1-.863.863H17.174a.863.863 0 0 1-.863-.863v-.316a6.022 6.022 0 0 0-1.8-4.3c-1.464-1.425-4.078-4.21-5.164-6.925-1.776-4.436-5.289-10.564-7.094-12.369-.411-.41-.548-.79-.408-1.128a1.7 1.7 0 0 1 1.524-.85c1.173 0 4.352 2.907 6.185 5.656zm0 0" transform="translate(0 -.14)"/>
        <path d="M78.729 14.287a.863.863 0 0 0 .629-1.454 8.607 8.607 0 0 1-.378-11.4A.863.863 0 1 0 77.65.33a10.334 10.334 0 0 0 .45 13.686.863.863 0 0 0 .629.272zm0 0" transform="translate(-67.595)"/>
        <path d="M242.985 12a.863.863 0 0 0 1.161-.374A10.319 10.319 0 0 0 242.913.33a.863.863 0 1 0-1.329 1.1 8.6 8.6 0 0 1 1.028 9.411.863.863 0 0 0 .373 1.159zm0 0" transform="translate(-216.895)"/>
    </g>
</svg>