<svg xmlns="http://www.w3.org/2000/svg" width="32.15" height="32.149" viewBox="0 0 32.15 32.149">
        <ellipse cx="16.075" cy="16.075" rx="16.075" ry="16.075" />
        <g transform="translate(7.859 9.169)">
            <path style="fill: #ffffff;" d="M61.938,99.557l-14.587,5.684a.532.532,0,0,0,.043,1.006l3.707,1.095,1.383,4.389a.637.637,0,0,0,1.062.254l1.916-1.957,3.76,2.76a.785.785,0,0,0,1.232-.472l2.49-11.907A.75.75,0,0,0,61.938,99.557ZM60.11,102.2l-6.775,5.992a.364.364,0,0,0-.121.232l-.261,2.319a.07.07,0,0,1-.137.013L51.742,107.3a.364.364,0,0,1,.156-.417l8-4.962A.177.177,0,0,1,60.11,102.2Z" transform="translate(-47.013 -99.504)" />
        </g>
</svg>