<svg xmlns="http://www.w3.org/2000/svg" width="59.039" height="59.038" viewBox="0 0 59.039 59.038">
    <path d="M22828,13273.521a29.52,29.52,0,1,1,29.52,29.52A29.521,29.521,0,0,1,22828,13273.521Zm30.789,21.729v5.193a26.97,26.97,0,0,0,25.668-25.658h-5.2a1.266,1.266,0,1,1,0-2.531h5.191a26.977,26.977,0,0,0-25.656-25.658v5.194a1.266,1.266,0,1,1-2.531,0v-5.194a26.977,26.977,0,0,0-25.66,25.658h5.2a1.266,1.266,0,0,1,0,2.531h-5.2a26.974,26.974,0,0,0,25.66,25.658v-5.193a1.266,1.266,0,0,1,2.531,0Zm11.188-7.8a1.268,1.268,0,0,1-.906-.381l-12.445-12.663a1.244,1.244,0,0,1-.367-.887v-13.3a1.266,1.266,0,1,1,2.531,0V13273l12.094,12.3a1.267,1.267,0,0,1-.9,2.153Z" transform="translate(-22827.996 -13244.002)" />
</svg>