<svg xmlns="http://www.w3.org/2000/svg" width="63" height="63" viewBox="0 0 63 63">
  <g transform="translate(-341 -1391)">
    <path d="M63,31.5A31.5,31.5,0,1,0,10.224,54.7l-.03.026,1.022.861c.066.056.139.1.205.157.543.45,1.105.877,1.678,1.291.186.134.371.268.56.4q.918.632,1.881,1.2c.14.082.281.163.422.243.7.4,1.419.777,2.153,1.123l.163.073A31.217,31.217,0,0,0,25.9,62.489l.211.038c.829.143,1.668.258,2.517.334.1.009.206.015.31.024.845.07,1.7.115,2.566.115s1.7-.045,2.545-.112c.107-.009.213-.015.32-.024q1.263-.115,2.495-.329l.214-.039a31.215,31.215,0,0,0,7.511-2.354c.087-.04.175-.078.262-.119q1.06-.5,2.074-1.072.253-.143.5-.29c.616-.363,1.222-.742,1.811-1.145.212-.144.419-.3.629-.448.5-.362,1-.735,1.476-1.126.107-.086.221-.16.325-.249l1.048-.875-.031-.026A31.418,31.418,0,0,0,63,31.5Zm-60.709,0a29.209,29.209,0,1,1,48.58,21.836,8.585,8.585,0,0,0-1.023-.615l-9.7-4.849a2.539,2.539,0,0,1-1.411-2.283V42.2c.225-.277.462-.591.707-.936a23.342,23.342,0,0,0,3-5.868,4.157,4.157,0,0,0,2.388-3.767V27.57a4.168,4.168,0,0,0-1.016-2.714V19.511a9.239,9.239,0,0,0-2.157-6.717c-2.111-2.41-5.528-3.63-10.157-3.63s-8.046,1.22-10.157,3.629a9.239,9.239,0,0,0-2.157,6.717v5.346a4.174,4.174,0,0,0-1.016,2.714v4.061a4.167,4.167,0,0,0,1.535,3.231,21.523,21.523,0,0,0,3.543,7.318v3.315a2.555,2.555,0,0,1-1.331,2.243l-9.057,4.94a8.277,8.277,0,0,0-.861.545A29.139,29.139,0,0,1,2.291,31.5ZM48.635,55.133q-.6.436-1.222.842c-.19.124-.379.247-.573.368-.541.334-1.09.653-1.652.951-.124.065-.249.127-.373.191a29.188,29.188,0,0,1-4,1.691l-.145.049q-1.077.357-2.181.632h-.007c-.742.183-1.494.336-2.25.46l-.062.011c-.711.116-1.428.2-2.148.262-.127.011-.254.019-.383.029-.711.054-1.426.088-2.144.088s-1.45-.036-2.171-.089c-.125-.009-.25-.017-.373-.029-.726-.064-1.449-.15-2.165-.267l-.1-.017a29.1,29.1,0,0,1-4.456-1.112l-.135-.046q-1.081-.368-2.133-.817l-.015-.007c-.662-.285-1.312-.6-1.953-.935-.084-.044-.168-.085-.251-.129-.585-.313-1.158-.651-1.723-1q-.251-.158-.5-.32c-.52-.34-1.033-.694-1.533-1.069-.052-.039-.1-.08-.152-.119l.11-.062,9.057-4.94a4.844,4.844,0,0,0,2.526-4.254V41.368l-.263-.318a19.125,19.125,0,0,1-3.438-7.12l-.1-.454-.391-.253a1.9,1.9,0,0,1-.881-1.594V27.568a1.871,1.871,0,0,1,.638-1.4l.378-.341v-6.38l-.01-.15a6.9,6.9,0,0,1,1.6-4.994c1.656-1.888,4.495-2.846,8.434-2.846s6.754.951,8.415,2.825A7.014,7.014,0,0,1,41.533,19.3l-.01,6.53.378.341a1.873,1.873,0,0,1,.638,1.4v4.061a1.913,1.913,0,0,1-1.353,1.8l-.569.175-.183.567a21.191,21.191,0,0,1-2.859,5.764c-.3.424-.592.8-.843,1.087l-.284.324v4.237a4.816,4.816,0,0,0,2.678,4.332l9.7,4.849c.062.031.123.063.183.1C48.885,54.958,48.759,55.044,48.635,55.133Z" transform="translate(341 1391)"/>
  </g>
</svg>