<svg xmlns="http://www.w3.org/2000/svg" width="16.0924" height="27.7422" viewBox="0 0 473.44 816.19" xmlns:xlink="http://www.w3.org/1999/xlink">
    <g>
        <path class="fil0" d="M14.71 51.26l39.8 0 0 -17.2c0,-9.38 3.83,-17.9 9.99,-24.07 6.16,-6.16 14.68,-9.99 24.07,-9.99l113.73 0c9.38,0 17.91,3.83 24.07,9.99l0 0.06c6.16,6.17 9.99,14.67 9.99,24.01l0 17.2 237.08 0 0 161.81 0 603.12 -237.08 0 -236.36 0 0 -399.68 0 -203.45 0 -161.81 14.71 0zm14.71 365.25l112.58 0c25.96,0 49.56,10.61 66.65,27.71 17.09,17.09 27.71,40.69 27.71,66.65l0 275.9 207.66 0 0 -558.99 -414.6 0 0 188.74zm112.58 29.42l-112.58 0 0 340.83 177.52 0 0 -275.9c0,-17.84 -7.31,-34.08 -19.08,-45.85 -11.77,-11.77 -28.01,-19.08 -45.85,-19.08zm-112.58 -247.58l414.6 0 0 -117.68 -207.66 0 -181.85 0 -25.09 0 0 117.68zm54.51 -147.1l123.01 0 0 -17.2c0,-1.29 -0.52,-2.45 -1.34,-3.3l-0.03 0.03c-0.84,-0.84 -2.01,-1.37 -3.27,-1.37l-113.73 0c-1.26,0 -2.42,0.53 -3.27,1.37 -0.84,0.84 -1.37,2.01 -1.37,3.27l0 17.2z" />
    </g>
</svg>