<svg xmlns="http://www.w3.org/2000/svg" width="62.152" height="31.362" viewBox="0 0 62.152 31.362">
    <rect fill="#ffffff" width="62.153" height="31.362" rx="5" />
    <g transform="translate(8.805 9.578)">
        <g fill="#3c58bf">
             <path d="M184.8,192.316l2.118-11.916h3.31l-2.052,11.916Z" transform="translate(-169.507 -180.003)" />
             <path d="M258.129,176.13a8.4,8.4,0,0,0-3.045-.53c-3.31,0-5.693,1.655-5.693,4.038,0,1.787,1.655,2.714,2.979,3.31s1.721.993,1.721,1.523c0,.794-1.059,1.192-1.986,1.192a7.2,7.2,0,0,1-3.178-.662l-.463-.2L248,187.516a10.734,10.734,0,0,0,3.773.662c3.509,0,5.826-1.655,5.826-4.171,0-1.39-.861-2.449-2.847-3.31-1.192-.6-1.92-.927-1.92-1.523,0-.53.6-1.059,1.92-1.059a6.072,6.072,0,0,1,2.516.463l.331.132.53-2.582Z" transform="translate(-227.477 -175.6)" />
             <path d="M365.086,180.4c-.794,0-1.39.066-1.721.861L358.4,192.316h3.575l.662-1.986h4.237l.4,1.986h3.178l-2.78-11.916Zm-1.523,7.944c.2-.6,1.324-3.509,1.324-3.509s.265-.728.463-1.192l.2,1.125s.662,2.979.794,3.641h-2.78Z" transform="translate(-328.742 -180.003)" />
             <path d="M56.165,189.475l-.331-1.721a9.6,9.6,0,0,0-4.634-5.23l2.979,10.592h3.575L63.116,181.2H59.541Z" transform="translate(-46.963 -180.737)" />
        </g>
        <g fill="#293688">
            <path d="M184.8,192.316l2.714-11.916h2.714l-2.052,11.916Z" transform="translate(-169.507 -180.003)" />
            <path d="M258.129,176.13a8.4,8.4,0,0,0-3.045-.53c-3.31,0-5.1,1.655-5.1,4.038a3.461,3.461,0,0,0,2.383,3.31c1.324.6,1.721.993,1.721,1.523,0,.794-1.059,1.192-1.986,1.192a7.2,7.2,0,0,1-3.178-.662l-.463-.2L248,187.516a10.734,10.734,0,0,0,3.773.662c3.509,0,5.826-1.655,5.826-4.171,0-1.39-.861-2.449-2.847-3.31-1.192-.6-1.92-.927-1.92-1.523,0-.53.6-1.059,1.92-1.059a6.072,6.072,0,0,1,2.516.463l.331.132.53-2.582Z" transform="translate(-227.477 -175.6)" />
            <path d="M365.881,180.4c-.794,0-1.39.066-1.721.861l-5.76,11.056h3.575l.662-1.986h4.237l.4,1.986h3.178l-2.78-11.916Zm-2.317,7.944c.265-.662,1.324-3.509,1.324-3.509s.265-.728.463-1.192l.2,1.125s.662,2.979.794,3.641h-2.78Z" transform="translate(-328.742 -180.003)" />
            <path d="M56.165,189.475l-.331-1.721a9.6,9.6,0,0,0-4.634-5.23l2.979,10.592h3.575L63.116,181.2H60.2Z" transform="translate(-46.963 -180.737)" />
        </g>
        <path fill="#ffbc00" d="M0,180.4l.6.132c4.237.993,7.15,3.509,8.275,6.488l-1.192-5.627c-.2-.794-.794-.993-1.523-.993Z" transform="translate(0 -180.003)" />
        <path fill="#f7981d" d="M0,180.4H0c4.237.993,7.746,3.575,8.871,6.554l-1.125-4.7A1.616,1.616,0,0,0,6.157,181Z" transform="translate(0 -180.003)" />
        <path fill="#ed7c00" d="M0,180.4H0c4.237.993,7.746,3.575,8.871,6.554l-.794-2.582a2.335,2.335,0,0,0-1.39-1.92Z" transform="translate(0 -180.003)" />
        <g fill="#051244" transform="translate(4.303 1.721)">
            <path d="M60.209,203.02l-2.251-2.251L56.9,203.285l-.265-1.655A9.6,9.6,0,0,0,52,196.4l2.979,10.592h3.575Z" transform="translate(-52 -196.4)" />
            <path d="M188.176,292.113,185.33,289.2l-.53,2.913Z" transform="translate(-173.811 -281.521)" />
            <path d="M253.76,274.8h0c.265.265.4.463.331.728,0,.794-1.059,1.192-1.986,1.192a7.2,7.2,0,0,1-3.178-.662l-.463-.2L248,278.573a10.734,10.734,0,0,0,3.773.662,6.554,6.554,0,0,0,4.833-1.655Z" transform="translate(-231.781 -268.312)" />
            <path d="M364,228.272h3.111l.662-1.986h4.237l.4,1.986h3.178l-1.125-4.833-3.972-3.84.2,1.059s.662,2.979.794,3.641H368.7c.265-.662,1.324-3.509,1.324-3.509s.265-.728.463-1.192" transform="translate(-338.181 -217.68)" />
        </g>
    </g>
</svg>