<svg xmlns="http://www.w3.org/2000/svg" width="34.438" height="34.437" viewBox="0 0 34.438 34.437">
    <circle cx="17.218" cy="17.218" r="17.218" />
    <path fill="#ffffff" d="M29,51.7h1.351a1.14,1.14,0,0,0,.617-.269.989.989,0,0,0,.186-.594s-.026-1.813.815-2.08,1.9,1.753,3.024,2.528a2.14,2.14,0,0,0,1.5.458l3.019-.042s1.579-.1.831-1.339a10.09,10.09,0,0,0-2.245-2.6c-1.893-1.757-1.64-1.473.641-4.513,1.389-1.851,1.944-2.981,1.771-3.465-.165-.461-1.187-.339-1.187-.339l-3.4.021a.772.772,0,0,0-.439.077.953.953,0,0,0-.3.365,19.685,19.685,0,0,1-1.256,2.651c-1.514,2.571-2.119,2.706-2.366,2.547-.576-.372-.432-1.494-.432-2.292,0-2.491.378-3.53-.736-3.8a5.8,5.8,0,0,0-1.587-.158,7.328,7.328,0,0,0-2.821.289c-.387.189-.685.611-.5.636a1.526,1.526,0,0,1,1,.5,3.28,3.28,0,0,1,.336,1.538s.2,2.932-.467,3.3c-.458.25-1.087-.26-2.436-2.592a21.68,21.68,0,0,1-1.214-2.515,1.01,1.01,0,0,0-.28-.379,1.409,1.409,0,0,0-.522-.211l-3.23.021s-.485.014-.663.224c-.158.188-.013.576-.013.576s2.529,5.917,5.393,8.9A7.757,7.757,0,0,0,29,51.7Z" transform="translate(-12.433 -26.929)" />
</svg>