<svg xmlns="http://www.w3.org/2000/svg" width="22.291" height="12.615" viewBox="0 0 22.291 12.615">
    <path d="M19.185,119.148a30.348,30.348,0,0,1,2.183,2.2,6.381,6.381,0,0,1,.783,1.127c.3.583.028,1.224-.494,1.259H18.409a2.507,2.507,0,0,1-2.068-.84c-.45-.458-.866-.945-1.3-1.419a3.077,3.077,0,0,0-.584-.52.679.679,0,0,0-1.081.263,3.412,3.412,0,0,0-.342,1.515c-.035.765-.266.966-1.034,1a8.3,8.3,0,0,1-4.647-1A10.267,10.267,0,0,1,4.228,119.8a39.414,39.414,0,0,1-4.115-7.335c-.26-.578-.07-.889.568-.9,1.059-.021,2.119-.019,3.179,0a.934.934,0,0,1,.882.66A19.709,19.709,0,0,0,6.9,116.219a3.406,3.406,0,0,0,.814.895.5.5,0,0,0,.841-.247,2.771,2.771,0,0,0,.187-.837,12.472,12.472,0,0,0-.052-2.935,1.223,1.223,0,0,0-1.042-1.12c-.31-.059-.264-.174-.114-.351a1.168,1.168,0,0,1,1-.5H12.2c.578.114.706.374.785.955l0,4.077c-.006.225.112.893.518,1.042.324.106.538-.154.733-.359a12.642,12.642,0,0,0,2.066-3.176c.249-.5.462-1.023.67-1.544a.786.786,0,0,1,.83-.568l3.532,0a1.861,1.861,0,0,1,.312.019c.6.1.758.357.574.939a8.819,8.819,0,0,1-1.4,2.435c-.589.815-1.219,1.6-1.8,2.422-.537.749-.494,1.126.173,1.777Z" transform="translate(0 -111.127)" />
</svg>