<svg xmlns="http://www.w3.org/2000/svg" width="31.518" height="31.517" viewBox="0 0 31.518 31.517">
    <path d="M31.517,15.352A15.5,15.5,0,0,1,8.566,28.795L0,31.517,2.793,23.28a15.191,15.191,0,0,1-2.22-7.927,15.473,15.473,0,0,1,30.944,0Z" />
    <path style="fill: #ffffff;" d="M27.255,22.223c-.1-.157-.348-.251-.727-.439s-2.245-1.1-2.591-1.224-.6-.188-.854.188-.979,1.224-1.2,1.475-.442.283-.822.095a10.381,10.381,0,0,1-3.049-1.868,11.345,11.345,0,0,1-2.11-2.606c-.221-.376-.023-.58.166-.767.171-.169.38-.439.569-.659a2.522,2.522,0,0,0,.379-.628.686.686,0,0,0-.032-.659c-.095-.188-.854-2.04-1.17-2.793s-.631-.628-.853-.628-.474-.032-.727-.032a1.4,1.4,0,0,0-1.012.471,4.208,4.208,0,0,0-1.327,3.139,7.281,7.281,0,0,0,1.549,3.892c.189.251,2.623,4.174,6.478,5.681s3.856,1,4.551.941a3.836,3.836,0,0,0,2.561-1.788A3.137,3.137,0,0,0,27.255,22.223Z" transform="translate(-4.045 -3.335)" />
</svg>