<svg xmlns="http://www.w3.org/2000/svg" width="62.152" height="31.362" viewBox="0 0 62.152 31.362">
    <rect fill="#ffffff" width="62.153" height="31.362" rx="5" transform="translate(0 0.085)" />
    <g transform="translate(-13.254 7.038)">
        <g transform="translate(20.357 3.775)">
            <path fill="red" d="M23.31,30.9,21.6,34.73H20.357l1.875-4.1a2.764,2.764,0,0,1-1.47-2.757,2.845,2.845,0,0,1,2.911-3.149h1.609V34.73H24.205V30.9Zm.9-5.262h-.574c-.868,0-1.707.574-1.707,2.239,0,1.609.77,2.127,1.707,2.127h.574V25.633Z" transform="translate(-20.357 -24.723)" />
            <path d="M66.04,43.723v7.054H64.962V47.614H63.339v3.163H62.247V43.723h1.092v2.995h1.623V43.723Zm5.612,8.439h-.98V50.777H67.649v1.386h-.98V49.881H67.1a15.342,15.342,0,0,0,.714-5.556v-.6h3.275v6.158h.56v2.281ZM70.014,44.6H68.8v.126a15.565,15.565,0,0,1-.658,5.15h1.875V44.6Zm4.646,6.27c-1.455,0-2.351-1.161-2.351-3.33,0-2.267.63-3.919,2.127-3.919,1.176,0,1.945.882,1.945,3.275v.6H73.443c0,1.6.448,2.435,1.315,2.435a2.447,2.447,0,0,0,1.386-.476l.252.839A2.777,2.777,0,0,1,74.661,50.875Zm-1.2-4.268h1.805c0-1.2-.2-2.085-.826-2.085C73.765,44.521,73.527,45.347,73.457,46.606Zm5.136.658v3.513H77.5V43.723h1.092v3.261l1.693-3.261h1.106L79.643,47.04l2,3.737h-1.19Zm3.191-.014c0-2.211.854-3.625,2.505-3.625a2.221,2.221,0,0,1,1.3.364l-.154,1.036a1.867,1.867,0,0,0-1.162-.49c-.784,0-1.344.882-1.344,2.659s.42,2.771,1.3,2.771a1.783,1.783,0,0,0,1.19-.434l.252.812a2.136,2.136,0,0,1-1.469.532C82.694,50.875,81.784,49.657,81.784,47.25Z" transform="translate(-55.92 -40.77)" />
        </g>
        <g transform="translate(54.329 0.047)">
            <path fill="#ffcf00" d="M245.282,9.012c0-1.015.085-1.659,2.187-3.228,1.74-1.3,7.317-5.737,7.317-5.737V7.456h4.241V18.12h-12.42a1.329,1.329,0,0,1-1.325-1.325Z" transform="translate(-245.282 -0.047)" />
            <g transform="translate(1.71 6.613)">
                <path fill="#d7b000" d="M264.4,49.1v4.293L256.606,58.7l9.853-3.206V49.1Z" transform="translate(-256.606 -48.304)" />
                <path fill="#1d1d1b" d="M282.4,44.4c.456-.543,1.121-.735,1.487-.428s.292,1-.163,1.539-1.121.734-1.487.428-.292-1,.163-1.538" transform="translate(-278.167 -43.828)" />
            </g>
        </g>
    </g>
</svg>