<svg xmlns="http://www.w3.org/2000/svg" width="34.438" height="34.437" viewBox="0 0 34.438 34.437">
    <g transform="translate(0)">
        <path d="M17.218,0A17.218,17.218,0,1,1,0,17.219,17.219,17.219,0,0,1,17.218,0Z" />
        <path fill="#ffffff" d="M4.006,21.928A3.933,3.933,0,0,1,0,18.077V14.821a3.928,3.928,0,0,1,4.006-3.845h13.92a3.929,3.929,0,0,1,4.008,3.845v3.256a3.933,3.933,0,0,1-4.008,3.851Zm2.08-3.273a.853.853,0,0,0,.225.646.933.933,0,0,0,.67.214,1.956,1.956,0,0,0,.744-.156,2.7,2.7,0,0,0,.744-.444v.531H9.752V14.63H8.469v3.655a1.81,1.81,0,0,1-.4.26.845.845,0,0,1-.357.1.387.387,0,0,1-.266-.075.343.343,0,0,1-.08-.249V14.63H6.086Zm6.7.756a2.111,2.111,0,0,0,.664.092,1.306,1.306,0,0,0,.859-.248.909.909,0,0,0,.295-.728V16.056a1.063,1.063,0,0,0-.318-.837,1.34,1.34,0,0,0-.918-.283,1.574,1.574,0,0,0-.582.11,2.019,2.019,0,0,0-.543.306V13.406H10.963v6.045h1.283V19.1A1.617,1.617,0,0,0,12.789,19.411Zm3.59-4.4a1.163,1.163,0,0,0-.525.981v2.073a1.268,1.268,0,0,0,.475,1.045,2.056,2.056,0,0,0,1.311.381,2.276,2.276,0,0,0,1.391-.358,1.253,1.253,0,0,0,.463-1.068v-.237H18.221v.208a.782.782,0,0,1-.121.531.649.649,0,0,1-.434.115.55.55,0,0,1-.42-.139.77.77,0,0,1-.121-.5V17.17h2.367V15.993a1.2,1.2,0,0,0-.457-1.01,2.115,2.115,0,0,0-1.3-.347A2.269,2.269,0,0,0,16.379,15.011ZM2.424,14.278h1.23v5.1h1.2v-5.1H6.08v-.872H2.424Zm10.121,4.48a1.186,1.186,0,0,1-.3-.156V15.825l.266-.139.266-.04a.623.623,0,0,1,.4.115.414.414,0,0,1,.133.341v2.3a.405.405,0,0,1-.109.306.516.516,0,0,1-.342.092Zm4.58-2.31v-.462a.457.457,0,0,1,.541-.542.536.536,0,0,1,.4.127.546.546,0,0,1,.133.416v.462ZM5.387,8.539V5.156L3.654,0H5.121l.941,3.418h.092L7.055,0H8.533L6.842,5V8.539Zm3.684-.5a1.411,1.411,0,0,1-.531-1.161V3.909a1.23,1.23,0,0,1,.543-1.057,2.467,2.467,0,0,1,1.473-.393,2.2,2.2,0,0,1,1.385.41,1.308,1.308,0,0,1,.537,1.074V6.9a1.4,1.4,0,0,1-.525,1.155,2.322,2.322,0,0,1-1.455.473A2.224,2.224,0,0,1,9.07,8.037Zm.953-4.261a.328.328,0,0,0-.174.277V6.865a.4.4,0,0,0,.162.329.819.819,0,0,0,.467.115.914.914,0,0,0,.49-.115.376.376,0,0,0,.186-.329V4.053a.326.326,0,0,0-.186-.277,1,1,0,0,0-.49-.1A.9.9,0,0,0,10.023,3.776ZM13.973,8.2a1.317,1.317,0,0,1-.2-.8V2.448h1.148V7A.464.464,0,0,0,15,7.3a.263.263,0,0,0,.23.1.692.692,0,0,0,.324-.127,1.657,1.657,0,0,0,.352-.318v-4.5h1.154v5.93H15.906V7.719a2.452,2.452,0,0,1-.664.554,1.5,1.5,0,0,1-.664.248A.761.761,0,0,1,13.973,8.2Z" transform="translate(6.144 5.632)" />
    </g>
</svg>