<svg xmlns="http://www.w3.org/2000/svg" width="416" height="340" viewBox="0 0 416 340" fill="#505050">
    <path d="M54 268l-2-2-11-4-16-4 10 28c-2 1-3 1-4-1l-4-13-5-13a10 10 0 0 1 0-3l1-2c2 0 4-1 5-3 3-2 6-2 10-1l18 6 7 3c-1 3 1 5 2 7l1 3 12-4 16-7 16-7 1-2 2-3 1-5v-6l-1-15-1-13-2-19a34 34 0 0 1-3 2 4 4 0 0 1-2 0 6 6 0 0 1 1-2 5 5 0 0 1 2-1c2-1 2-3 2-5l-1-22a22 22 0 0 0-1-4l-15 1-21 6a37 37 0 0 0-14 9c6 5 6 11 2 16a17 17 0 0 0 3 3 4 4 0 0 0 3 1c7-2 14 0 20 4 6 5 9 12 8 20l-1 5a4 4 0 0 0 1 2 2 2 0 0 0 1 0c4-1 8 0 10 3l3 7c2 6-4 11-8 11-2-1-4-2-3-4v-3c1-2 0-3-2-3a19 19 0 0 0-6 1 2 2 0 0 0-1 3l3 2c3 0 3 0 3 3v2c0 2 0 4-2 5l-6 2c-3 0-7-2-9-6l-1-3-15 1c-7-1-11-5-15-9-5-6-5-13-4-20l1-5a2 2 0 0 0 0-1l-7-9-2-1c-4-1-8-2-10-6-1-1-2-2 0-4l-1-4c1 2 3 3 3 5 1 4 5 6 9 6h6c6 0 10 3 13 8a50 50 0 0 0 9 11l10 12 7 6c3 2 3 2 2 5l-1 2c-2 2-2 3-1 5a11 11 0 0 0 2 3 4 4 0 0 0 5 1l4-2v-2l-1-1c-3-1-5-3-5-5s1-5 4-6a13 13 0 0 1 8-1c4 0 5 3 4 6l-1 3c3 1 6-3 6-6l-3-6c-1-2-3-3-6-2s-4 0-6-2c-3-4-7-8-12-9l-2-2a3 3 0 0 0-1-3l-7-9-8-9a9 9 0 0 0-3-1c-2-2-3-2-1-4 6-7 2-13-4-15a30 30 0 0 0-4-1h-3v-4l5 1 5 1-5-4c0-1 1-2 2-1l5 3 5-3v-2l-5-5c-3-1-3-1-3-4a27 27 0 0 0 2 2l2 1c3 0 5 3 7 6l3-1v-2l-6-9-1-1 1-1 1 1 7 10a2 2 0 0 0 1 0l4-1-3-11c-2 0-3 0-3-3l3 2 3-2v-1l9-3c10-2 19-3 29-3a3 3 0 0 0 2-1l-19-7-2-3-1-28c0-2-1-3-3-4a7 7 0 0 1-4-6l-2-15-1-8-2-6 1-2 3-3c2 0 2-1 2-3l-1-7 2-3 25-13a13 13 0 0 0 3-1l-6-7c-1-2-2-5-1-8l1-6 7-7h2l-1 2-6 6-1 3 5-2c2 0 4 1 5 3 2 2 0 6-3 7a7 7 0 0 1-7-2c1 5 4 7 7 9l2-1 12-5a8 8 0 0 0 2-1c3-3 7-2 10-1l30 8 29 6 1-1c0-5 4-9 9-11h21l1 1-1 1h-8a17 17 0 0 0-2 0l1 2c0 2 0 4-3 6s-6 2-7 0c-2-2-2-4 0-6l2-2c-6 0-10 3-11 9-1 1 0 2 1 3l17 4 10 3c4 0 5 2 4 6l-1 13 1 2c4 2 5 5 5 9v13l-1 14c0 3 0 6-2 9l-4 3-1 2v16a5 5 0 0 1-2 5l-25 19 8 2 14 2c3 0 5 3 5 7v5l1 2 19 12c7 4 14 5 22 4 6-1 11-2 16-5 4-2 8-5 11-10l3-4 1-1 1-12v-2a2 2 0 0 1 0-2v-4l-3 1c-9 1-20-5-24-13v-4c2-4 6-6 10-6h7l-6-2-16-4a8 8 0 0 1-4-4c-3-7 0-15 4-19a9 9 0 0 1 10-3l10 4 10 3a35 35 0 0 0 1-4c0-2 1-2 2-2l23 2a8 8 0 0 1 6 6l1 7c0 2 1 3 2 3a32 32 0 0 1 3 2l4 3c2 1 3 3 3 6l1 1 21 9 15 5 17 7c3 2 6 3 8 6v3c-1 1-2 3-3 2l-8-1-17-6-37-14-3 1a6 6 0 0 1-6 2 6 6 0 0 1-6 1h-2l-4 4a3 3 0 0 0-1 1 49 49 0 0 1 1 17c-1 12-4 24-14 33-5 4-12 8-19 10a119 119 0 0 1-13 3l-12 2c-2 0-3-1-3-4a9 9 0 0 1 1 2h3l4-2 2-3c1 2 2 3 4 2l8-1-6-14-7 1-1 2v6l-2-1v-7h-7l-1 1c-2 4-1 9 0 13v1h-2c-1-5-2-10 0-14 1-2 0-2-1-2l-3-1c-1-1-2-1-3 1-4 4-4 8-4 13l2 2 8 1v2l2-1c-1 3-1 3-3 2h-5a51 51 0 0 1-18-6l-2 1a2 2 0 0 0-1 1l1 19v5l-2-1v1l1 1a19 19 0 0 0-2 2l-1-17-4 1a5 5 0 0 1-2-1 5 5 0 0 1 1-1 43 43 0 0 1 5-1v-3l-6 1-1-1 1-1a43 43 0 0 1 4-1c2 0 2-2 2-3l-8 2-2-1 2-1 7-2 1-1-9 1h-2l1-2 8-1a8 8 0 0 1 2 0 1 1 0 0 1 0-1 7 7 0 0 0-2-1l-7 1h-3l-1-1 1-1 8-1v-1a12 12 0 0 0-3 0l-5 1-2-1 2-1 4-1v-1h-5l-2-1 2-1h1v-1l-3-3 3-7a22 22 0 0 1 11-9c2-1 2-3 2-4l-1-4a127 127 0 0 1-7 5l-14 10a3 3 0 0 0-2 3l3 31 1 15a70 70 0 0 1 2 20l-2 2v-3l-2-18-1-11-2-21v-5l-1-11-11-3-13-5-7-3c-4-2-8 0-12-3a68 68 0 0 0-12-4l-12-3c-6-1-12-3-17-6l-11-4v14l2 22c0 2 0 3 2 3 3 1 6 0 9-1h4v-15l6 3 25 9 17 4c1-3 3-6 6-7l6-2c4-2 7 0 10 3v2a6 6 0 0 1-2-1c-1-2-4-3-7-3l-3 1c2 3 2 5 1 7h-3c-2 0-2-2-2-5l-3 4 1 1 8 2c2 0 3 3 3 6l-1 28v3h2a6 6 0 0 1 6 4l2 3c3 1 6 3 6 6a12 12 0 0 1 0 4l-1 1-1-1a7 7 0 0 0-3-8c-1-1-2-1-3 1a8 8 0 0 1-2 3 2 2 0 0 1-4-1v-4l4-3c0-3-3-4-6-3l-2 15v8c-1 2-2 2-3 1l-17-6-22-8-11-4c-2 0-4-1-5-4-4 3-6 9-4 11l4 4 1 1a4 4 0 0 1-1 1c-3 0-6-3-6-6-1-6 1-9 5-12l1-2v-10l-1-21v-6l-2-2-6 1c1 3 4 5 1 8h-5c-3-2-1-5 0-8h-4v7l1 11 2 17v15l1 5c0 2 3 2 4 2l10 4 17 5 10 5 15 7 16 6 17 6 5 2 3 1c-2-10-2-19-2-29l2 3 1 16a91 91 0 0 0 1 10l3-2c3-3 6-5 10-6 2-1 3-2 3-4v-28c0-2 0-3 2-4a94 94 0 0 1-2-3v-1c2 1 3 3 3 5v32c0 3-1 4-5 6l-4 1 1 1 19 5 1 1a10 10 0 0 1-2 1l-14-4h-2c0 2 0 3 3 3l12 3 1 1-2 1-13-3c-1 3-1 3 2 4l7 1 1 1-1 1-8-1c-3-1-3-1-3 2l4 1h2l1 1-1 1-7-1c-1-1-2 0-3 1l4 1 1 1-2 1h-1l-7-1-9-1a23 23 0 0 0-3 0l-2 1a1 1 0 0 0 1 1h5l1 1-2 1h-11a1 1 0 0 0 0 1 45 45 0 0 1 5 1l1 1-1 1-6-1c-3-1-4 0-7 2h5a6 6 0 0 1 2 2h-2l-8-1-4 1v1l5 1 2 1-2 1a69 69 0 0 0-8-1l-5 1a10 10 0 0 1 2 1h4l2 2h-2a37 37 0 0 1-6 0c-2-1-5-2-7 1h3c1 1 3 0 3 2-1 2-2 1-4 0l-6-1-4 2 6 2 1 1h-2l-8-1a8 8 0 0 0-3 0l-6 2 9 2 2 1a12 12 0 0 1-3 0l-6-1a20 20 0 0 0-5 0 45 45 0 0 0-6 1v1l10 1a37 37 0 0 1 4 2l1 1h-1l-15-2c-2 0-3-2-5-1l-2 2 2 1 9 1 1 1-1 1-12-2a3 3 0 0 0-2 1c-1 1-2 2-4 1l-17-5-7-3-12-3-22-4a4 4 0 0 1-2-1 4 4 0 0 1 2-1l10 1 15 3c0-2-1-2-2-3l-12-2-15-3-4-1-1-1a4 4 0 0 1 2-1l25 5a34 34 0 0 0 6 1c0-3 0-3-4-4l-6-1-7-2a11 11 0 0 1-2-1l2-1 9 2 6 2c1-3 0-4-3-4l-10-2a1 1 0 0 1-1 0l-2-2a18 18 0 0 1 2 0l12 2 1-1-2-1-6-1-1-1 1-1a25 25 0 0 1 4 0l3 1-2-5-11 5c-2 0-2 2-3 3l-2 1a4 4 0 0 1-4 2l-11-3-6-1-8-3-5-2c1-2 3-2 4-2a124 124 0 0 0 11 4l13 3a25 25 0 0 1-1-4l-2-11-2-8v-3l1 1a78 78 0 0 1 3 9 59 59 0 0 0 5 18l2-4 1-2-2-10-2-10c-1-3-3-5-2-8l-1-1c2 0 2-1 1-2a19 19 0 0 1-2-4h-2a12 12 0 0 1-3 1c-3 0-3 0-3 3h-2zm141-112a27 27 0 0 0 1-4v-20l-2-32V72c0-2-1-3-2-3l-13-5-29-8-20-4-24-5-17-2 1 4 1 11 4 30 1 5 1 29 2 3 30 10 30 8 10 3 17 4 9 4zm11-120l2 6v2l-2-2-2-6-2-1-5-1-22-5-29-8c-4-1-8-3-11 0l-1 1-12 5-17 9-12 7h4l11 2 18 3 21 4 15 4 31 10 4-1 14-10 19-11a15 15 0 0 1 3-1l-27-7zm29 10c-6 3-13 6-18 10l-18 12-2 4 1 41 1 40a6 6 0 0 0 0 1l3-2 8-7a186 186 0 0 0 22-17v-6h-2l-13 7-2-1 2-1 13-7 2-2-11 5-6 3h-2a10 10 0 0 1 2-2l16-8a7 7 0 0 0 1-1v-1l-10 4-9 5-2-1 2-1a54 54 0 0 1 5-3 1 1 0 0 0-1 0c-6 2-9 0-9-6l1-38c0-2 1-3 3-4l15-8c2-1 4-3 7-2l1-15zM124 330l-3-10-1-9-5-16c-1-2-2-4-4-4a2 2 0 0 1-2-1c-5-2-10-5-15-5l-10-3v2l5 14c2 6 5 11 5 16l2 6a3 3 0 0 0 3 2l3 1 14 5 8 2zm90-215a10 10 0 0 0 3 0l15-7c4-2 6-5 6-10l2-24a57 57 0 0 0 0-7l-3 1-5 3-14 6a3 3 0 0 0-1 2l-2 8-1 13v15zm-103 28l2 1 8 3a99 99 0 0 0 20 6c5 1 10 2 15 5a88 88 0 0 0 10 3l10 2 11 5c6 3 13 4 19 6h2l10-7 12-8v-1l-5-1c-1-1-1 1-2 2l-13 8h-2l1-2h1l11-8-6-1h-1l-14 10a6 6 0 0 1-3 1l1-2 9-6 4-3v-1a14 14 0 0 0-3 0l-12 8c-1 1-3 2-5 1l1-1 3-2 11-7a9 9 0 0 0-2 0l-2 1c-3 3-6 5-10 3a2 2 0 0 0-2 1l-4 3-1 1v-2l4-4c-2-1-3-1-4 1l-4 3-2 1c-1-1 0-2 1-2l4-4v-1h-3l-7 5a6 6 0 0 1-2 1l1-2 2-3c-3 0-4 2-6 3l-2 1 1-2a7 7 0 0 1 1-2c-2-1-4-2-6 1a1 1 0 0 1-1 0h-2l1-1 1-1c-2-2-4-2-5-1l-2 1 1-2v-1l-2-1-4 2h-2l1-2a48 48 0 0 1 4-3l-1-2-6 6h-2a8 8 0 0 1 0-2l2-2 3-3a13 13 0 0 0-3 1l-4 3-2 1c-1-1 0-1 1-2l3-4c-2-1-3-1-5 1a24 24 0 0 1-4 4h-3l1-2h1l5-4h-5l-3 4h-2a5 5 0 0 1 1-2l3-3v-1h-3l-5 5a7 7 0 0 1-2 1 5 5 0 0 1 0-2l2-2 3-2a7 7 0 0 1-1-1h-2l-4 4-2 1v-2l4-4v-1a6 6 0 0 0-2 1l-4 4-2 1v-2l4-4-8 5zm208-47l4 6c3 5 2 11 0 17-3 7-8 13-15 16-4 3-8 5-13 4h-3c5 4 11 4 17 3-1-2 0-3 2-3a72 72 0 0 1 9-4c3 0 6-1 6 4l5-5a28 28 0 0 0 6-15l-1-16c0-4-3-5-7-6h-6a44 44 0 0 0-4-1zM50 203l-1 1c-5 7-6 14-4 22 2 7 7 12 14 14 5 1 10 0 15-1 2 0 3-2 4-3v-1l-5-4c-2-2-3-2-4-1-5 3-8 3-11-1s-4-9-2-15v-2l-6-9zm264-95c-6-7-14-9-22-11 1 4 1 7-1 11-2 3-4 6-8 7l27 8 2-3-11-4-7-2-1-1 2-1 16 5a3 3 0 0 0 2 0l1-6-1-1-8-3-8-3-1-1 2-1 16 6zm7 67l-7-2c-1 0-3 0-2-2h3a39 39 0 0 0 6 1 3 3 0 0 0 2-2 131 131 0 0 0 2-10c-5 3-9 1-13 0l-2 7c-1 1-2 2 0 3v2c-2-2-3-1-4 1l-2 3c-2 1-2 2 0 3l10 6 2-1 5-9zm-190-3v6a2 2 0 0 0 1 1l8 3 16 5 21 6v-7c-17-2-31-9-46-14zm218-42l55 21 1-4-2-1-15-6-28-11-9-4-2 5zM151 319h1c4-1 7-2 8-7a25 25 0 0 0-5-20c-3-4-9-4-12 0 7 4 11 19 8 27zM311 96c-2 2-1 5 1 6a10 10 0 0 1 5 10 26 26 0 0 1-5 13 13 13 0 0 1-10 6h-8l-4-2c-1-3-2-3-4 0l-1 1 3 3c3 2 7 4 11 3a31 31 0 0 0 12-6 30 30 0 0 0 11-19c1-7-3-12-11-15zM122 287l-2 2c-4 1-4 2-3 7 3 6 5 13 6 20a38 38 0 0 0 5 15 3 3 0 0 0 0-1l2-3 1-3-3-14-4-13-2-10zm12-12v1l6 1 20 2c3 1 5-1 8-2h-1l-5-1a52 52 0 0 1-7-2l-1-1h1l15 2c2 0 5 1 7-1h-1l-15-3a4 4 0 0 1-1-1l1-1h1l13 2c2 1 2 0 2-2l-3-1-6-1-5-1-1-1a5 5 0 0 1 1-1l4 1-5-2-1 1c-2 6-6 9-12 9l-8-1h-1c-2 3-4 3-6 3zm27 40l7-3 2-1a14 14 0 0 0 1-9l-2-8c-2-4-4-7-8-8l-2-1-6 2c9 8 11 17 8 28zm130-213l-1-2c0-3-3-6-6-6-2 0-4 1-5 3-4 5-5 10-2 15a4 4 0 0 0 3 2c5 0 11-6 11-12zM90 218c2-5 1-13-4-17-5-6-14-8-20-6l6 5a7 7 0 0 0 4 2c5 1 7 5 5 9l-1 1 10 6zm83 92c4-1 6-4 7-9a20 20 0 0 0-6-16c-3-4-8-5-12-1l5 4c5 7 7 14 6 22zm-30 12c3-1 6-3 7-7 1-7-2-13-5-19-3-4-7-4-11 0 9 6 11 16 9 26zm112-138l-4-1c-4-3-4-3-7 1s-5 7-5 12l1 1 9 5c0-7 1-13 6-18zm-10-5l-5-4h-2c-4 3-7 7-9 12-1 2-1 3 1 5l6 3 1 1c0-8 4-12 8-17zm-74 101c10 6 13 15 10 26l4-1c2-1 3-3 3-5a28 28 0 0 0-3-13c-1-5-6-8-11-8l-3 1zm-36-51l51 19 1-4-2-1-11-3-22-8-12-4c-2-1-4 0-5 1zm-37 31a14 14 0 0 1 8 8 37 37 0 0 1 2 7c0 3 2 4 4 5l2-2c1-5 1-11-3-15-4-6-7-8-13-3zm216-72v-1c-5-2-10-4-13-8l-1 1-4 2c-2 1-2 2-1 4a16 16 0 0 0 8 8 3 3 0 0 0 3 0l8-6zM136 325c2 0 4-1 5-3v-8c0-7-2-12-8-16-2-2-3-2-5 0 6 8 10 16 8 27zM27 256l5 1 13 4a56 56 0 0 1 7 3h2a43 43 0 0 0 5-3l-8-4-12-3c-3-1-6-2-8 0l-4 2zm92 30l-8-3-14-4c-5-1-7-2-11 2l6 1 14 4 7 4a3 3 0 0 0 2 0l4-4zm25-31l-4-2a428 428 0 0 1-21-7 5 5 0 0 0-3 1l-1 2a9 9 0 0 0 3 1 23 23 0 0 1 14 4c4 3 8 7 8 12 0 3 1 3 3 3-2-5-1-10 1-14zm-29 25a39 39 0 0 1 4-1c3-1 3-3 3-5 1-4 0-8-2-12s-6-7-10-7h-3a20 20 0 0 1 9 11 22 22 0 0 1-1 14zm75 23a60 60 0 0 1 7-4l1-2c-2-8-5-14-12-18-3-1-4-2-6-1 9 6 10 15 10 25zm-83-25l-2-5c-1-4-2-8-5-10s-7-3-10 0c4 3 6 5 8 11l1 2 8 2zm65-50c0-2 0-2 3-3a3 3 0 0 0 1-1c1-2 3-2 4-2 1 1 2 0 2-1l-1-1a3 3 0 0 1-1-3 7 7 0 0 0-1-3 2 2 0 0 1 0-3l1-2-2 1h-3c-1-2-3-2-4-1-2 0-3 0-3-2l-1-1v2c1 1 0 2-1 3l-1 2c-1 1-1 2-2 1-2 0-2 1-2 2 2 1 3 1 3 4l3 3c-3-4-2-6 0-9 2-2 5-3 7-1 2 1 4 4 3 7l-2 3-6 2v3a15 15 0 0 1 3 0zm130-32c-5-3-9-6-10-12l-6 2a3 3 0 0 0-1 2l6 11h1l10-3zM74 297c3 0 4-1 5-4 1-6-1-16-7-21h-5l6 12c2 4 3 8 1 13zm152-109a26 26 0 0 1 11-15l-4-2h-2c-5 1-7 5-9 9-2 3-2 3 1 5l3 3zm87-38l-1 6a2 2 0 0 0 1 2c4 1 7 2 11 1a2 2 0 0 0 1-2v-8l-12 1zM213 73l2 1c1 2 2 2 4 1l11-6 8-4c-2-3-6-3-9-2l-6 4-10 6zM84 143l-5 1c-5 1-5 2-4 7l1 1c1 4 2 5 5 4l5-1-2-12zm40 134l6-3 1-2-3-8a18 18 0 0 0-13-10c8 5 9 14 9 23zm63 0v1c4 1 6 4 8 7l5 11 1 2a2 2 0 0 0 2-1l1-3a24 24 0 0 0-1-6c-2-5-5-7-10-9l-6-2zm30 6a7 7 0 0 1-2 0c-2-1-3 0-3 1a44 44 0 0 0 0 8 3 3 0 0 0 3 3 10 10 0 0 0 11-5c2-4 1-9-2-12-2 1-2 2-1 4 3 3 2 6 0 9h-7c-1-1-2-3-1-5l2-3zm-92-3l7 1 16 3 10-2-24-4c-3-1-6 0-9 2zM95 154v-13l-7 1a2 2 0 0 0-2 2l2 7a5 5 0 0 0 3 3h4zm1 121v-1a67 67 0 0 0-4-6c-3-4-7-5-10-1l6 9c2-2 5-2 8-1zm10-135h-6a2 2 0 0 0-3 3 80 80 0 0 0 0 8l2 2a40 40 0 0 0 6 0c-2-4-2-9 1-13zm218 6l-1-6-2-2-8 3-1 1v6l12-2zM212 75a7 7 0 0 0-1 1v39l1-14 3-23a2 2 0 0 0-1-1l-2-2zm-93 207l3 2c2 0 3 0 3 2h1l12 2h5l5-2-3-1-16-2-6-1h-4zm3-29c6 5 10 12 12 19 2 0 3-1 3-3l-1-6c-3-6-8-8-14-10zm34 7v3c-1 2-4 4-6 3-3-1-4-3-2-6a37 37 0 0 1 2-4l-3-1c-3 5-3 9-2 12a3 3 0 0 0 3 3 9 9 0 0 0 10-7c0-1 1-3-2-3zm-24-73l1 37c2 0 3-1 3-3a470 470 0 0 1-4-34zM91 90l-3-33c-4 1-4 2-3 5l2 14 2 11c0 1 0 3 2 3zm98 107a17 17 0 0 0 1-4c0-3-1-3-3-4l-5-1c-4-1-4-1-4 3l1 2 1 1 9 3zM72 270c4 2 6 6 8 10l2-1c3-1 4-2 3-3a54 54 0 0 0-4-6l-3-2a48 48 0 0 0-6 2zm83-59h-1a12 12 0 0 1-1 1 6 6 0 0 1-8-1c-2-3-2-5-1-8 1-2 2-4 4-4 3 0 5 1 6 4a35 35 0 0 1 1 6h3l-2-4v-2c-1-2-1-3 1-4l-1-2c-3 2-3 2-5 1a3 3 0 0 0-3 0c-1 1-2 0-3-2h-1a4 4 0 0 0 0 1v1l1 2-2 3c0 2 0 3-2 3l-1 1a7 7 0 0 0 1 1l2 2 2 3c2 1 3 1 3 3l1 1h1c0-2 1-3 3-3a15 15 0 0 0 1-3zm42 66c6 4 10 9 10 17h4c-2-4-2-7-1-11 1-1 0-2-1-2l-9-3a6 6 0 0 0-3-1zm138-142c5-5 9-14 8-20l-2-2a9 9 0 0 0 0 1 38 38 0 0 1-6 19v2zM138 290l-12-2 1 6 11-4zM117 10l-5 2a2 2 0 0 0 0 1c1 3 3 4 6 2l1-3-2-2zm36 196c0-2-2-4-3-5-3 0-4 2-4 5s1 5 3 5c3 0 4-2 4-5zm188-73l4-2a82 82 0 0 0 3-11c1-1 0-2-2-2 1 6-2 10-5 15zM218 28c2 0 5-2 4-3l-2-3c-2 0-5 3-5 4 0 2 2 2 3 2zm5 258l-2-3c-1-1-2 0-3 2l-1 2a2 2 0 0 0 3 3c1-1 3-2 3-4zm-90 36h1c1-6-1-11-3-16h-1l3 16zm36-101c2 2 5 1 6 0 1-2 0-6-2-6s-4-1-5 2c3-1 5-1 5 1 1 2 0 2-4 3zm-17 36a41 41 0 0 0-2 5c-1 1 0 3 1 2 2 0 3-2 3-4 1-1 0-2-2-3zm15-62c5-1 7 0 6 5l3 1v-5a2 2 0 0 0-1-1l-8-2v2zm-11-47c2 2 15 6 19 5l-19-5zm-10 79l1-3-6-2c-1 4 0 5 5 5zm-98-27h-3a6 6 0 0 0-3 3l2 3 4-6zm245-73c2 2 9 2 12 0zm-186 16c-2 5-1 10 1 10l-1-10zm81 131h1l-6-3c-3-1-3 0-3 2l8 1zM84 293l-3-7v9l3-2zm36-105l-1 3a2 2 0 0 0 0 1 2 2 0 0 0 2 0l1-1-2-3zm-51 38a58 58 0 0 0-4-4h-1l2 6a25 25 0 0 1 3-2zm82-2c-2-1-3 1-2 4a16 16 0 0 1 2 1v-5zm-8-33c1-3 1-4-3-4 0 3 0 3 3 4zm-73 92l2 10h1a19 19 0 0 0-3-10zm340-131l1-1-2-2a3 3 0 0 0-2 0l-1 1a3 3 0 0 0 2 1l2 1zm-265 39c4-1 4-1 3-4l-2 1-1 3zm-14-10c0 3 0 3 2 4 1-3 0-3-2-4zm-69 40h-1a17 17 0 0 0-2-1l-1 1 3 1 1-1zm-19-22h-4l1 1 3-1zm16 25c0 2 1 2 2 2l1-1a25 25 0 0 0-3-1zm127 17h1v-3h-1l-1 2 1 1zm-18-44v1h2a4 4 0 0 0 1-1h-3zm14 20h1l-1-5c-2 2 1 3 0 5zm12 17c2 1 3-1 3-2-2 0-3 0-3 2zm-8-32c-1 1-2 1-1 3 2-1 2-1 1-3zm-29 0l2 4v-1-4a5 5 0 0 0-2 1zm16 34l2 2 1-2h-3zm11 1l1 1 2-1-1-3-2 3zm-3-34h1l1-2h-2v2zm-43 16l2-2-1-1c-1 1-2 1-1 3zm48-8h1v-3a12 12 0 0 1-2 1l1 2zm-1 15l-2-1-1 1a2 2 0 0 0 1 1l2-1zm-7-22a3 3 0 0 0 1 0l1-2a10 10 0 0 1-1 0l-1 2zm-37 15l-3 1v1l3-2z" />
    <path d="M237 335a61 61 0 0 0-6-2h-2c-2 2-8 2-10 0l-1-4c0-1 0-2-2-2l-3-1a23 23 0 0 1 4-1 8 8 0 0 1 1 0l1-2h-5a5 5 0 0 1-2-1l2-1 7 1h1l1-1-1-1-7-2-2-1 2-1 6 1-1-3a27 27 0 0 1-3-1 4 4 0 0 1-1-1h5a59 59 0 0 1 3-6c2-3 5-3 8 0h3c2-2 5-2 8-1a4 4 0 0 0 4-3c2-2 5-2 8 0 2 2 3 4 3 7a4 4 0 0 0 1 3 6 6 0 0 1 2 5c0 3 1 4 4 4 1 0 2 0 2 2l-1 7c0 3-3 4-6 3h-3l-7 3-1 1c0 2-2 3-3 3h-7a2 2 0 0 1-2-2 8 8 0 0 1 0-3zm-14-10c2 2 3 2 5 0h4l4 2c4 1 4 1 5 5h5c0-2 1-3 3-3a14 14 0 0 0 5-2c2-2 3-3 6-2a2 2 0 0 0 3-1c-4-1-5-2-5-6 0-2-1-4-3-5l-1-1c-2-1-3-3-1-5l1-1c-3-3-3-3-6 0l-5 2a9 9 0 0 0-8 2 3 3 0 0 1-4 0l-2-2c-1-1-2-1-4 1a18 18 0 0 0 0 1l3 2c1 1 2 2 1 3-2 2-3 5-3 7 0 3 0 3-3 3zm37 5v-2a7 7 0 0 0-3 0l-8 5h1a41 41 0 0 0 4-2c2-1 3-3 6-1zm-23 2v-1l-6-2a4 4 0 0 0-3 0l-1 2c3-2 3-2 5-1a10 10 0 0 0 2 1l3 1zm3 4v1h4l1-1-1-1a11 11 0 0 0-3 0l-1 1zm-19-8c0 3 0 3 3 3 0-2-1-3-3-3zm35-47c0-3 0-8 4-11a16 16 0 0 1 11-4c4 0 10 6 10 11v6c0 2-1 4-4 5a20 20 0 0 1-17-1 6 6 0 0 0-2-1c-2 0-2-2-2-5zm14 0l6-1c2-1 3-2 2-4a9 9 0 0 0-8-6c-3-1-7 1-9 3s-2 4 1 5c2 2 5 3 8 3zm8 2l-9 1c-1 2 0 2 2 2a20 20 0 0 0 5-1l2-2zM30 178l4 5c0-2 1-5 3-6l-1-3 4 2 11 2-5-2-3-2a25 25 0 0 1-4-6c3 4 8 4 11 6 4 3 6 6 5 10s-4 7-8 8a18 18 0 0 1-10 0c-5-2-7-6-7-11v-3zm7 8l10-1h1a4 4 0 0 0 0-1l1-2-1-2a13 13 0 0 0-9-1 3 3 0 0 0-1 1 40 40 0 0 0-1 6zm1 2v1c3 2 9 1 10-2l-10 1zm15 8c0-2 2-4 4-3a15 15 0 0 1 5 4c5 8 11 15 18 21a44 44 0 0 1 4 6v5h-6l-22-26c-2-2-3-4-3-7zm30 31l-1-2a57 57 0 0 0-4-5c-6-7-13-14-18-22l-4-3c-2 1-2 2 0 3a37 37 0 0 0 3 6l20 22 4 1zM7 290H2c-2 0-2-1-2-2l1-8a4 4 0 0 1 3-3l12-1c3 0 3 2 3 4a50 50 0 0 1-2 7c-1 2-3 2-5 2l-5 1zm-4-7h2l8-1c2 0 2-1 2-3l-10 1-2 3zm0 3h11l-1-1-9 1zm273 20l5 6h4a10 10 0 0 0 2-3v-1l-2-3c5 1 8 0 10-3-2-1-4-4-7-2l-1-2 4-2a5 5 0 0 1 2 2c1 2 3 3 5 3 1 0 2 0 1 1l-1 7-4 4-4 1a7 7 0 0 1-9-1 9 9 0 0 0-3-1c-2-1-3-3-2-5zm19 0a40 40 0 0 1-5 3l-1 2c2-1 6 0 6-5zm-65-49v7c0 3 0 3-3 4h-3a32 32 0 0 0-3 1l-2 1-1-2v-10l-1-5a2 2 0 0 1 1-3l10-2c2-1 2 0 2 1a68 68 0 0 1 0 8zm-2-7l-9 3 2 14a55 55 0 0 0 6-2l1-2v-13zM75 323l12 3 17 4 8 2 2 1-2 1a52 52 0 0 1-7-1l-26-7-5-1a6 6 0 0 1-1-1l1-1h1z" />
    <path d="M13 265a27 27 0 0 1-5-1l-2-1a3 3 0 0 1 1-3c3-3 6-3 10-1a3 3 0 0 1 1 3c-1 2-2 3-5 3zm-2-4v1h4v-1h-4zm265 45l-1-1c0-2 1-3 3-3l4-1c0-2 2-2 5 0l-3 1-1 1 1 2h1v3l-6-3v1h-3zm-244 1l17 2 1 1-1 1-15-2a2 2 0 0 1-2 0 11 11 0 0 1-1-2h1zm7-4l13 2 1 1H41a11 11 0 0 1-2-1l-1-1 1-1zm94 35l-8-1-2-2a10 10 0 0 1 2-1l9 2a8 8 0 0 1 2 1 12 12 0 0 1-2 1 2 2 0 0 1-1 0zM33 288c3 0 3 1 1 5 2-1 3 0 3 1l-1 2-2-1-2-5 1-2zm-6-107l-3-1c1-3 4-5 5-5a4 4 0 0 1 3 4l-3-2-3 1a23 23 0 0 0 1 3zm17-15l-2-1c0-1 1-3 3-2a15 15 0 0 0 4 0c-1 3-4 0-5 3zm10 102h1l2 4c1 1 2 3 1 5-2-2-3-5-4-9zm-5-107l-4 1-1-1 4-3a12 12 0 0 1 1 3zm-11 10l2 2a2 2 0 0 1-2 1v-3zm-14 14l-1-3h2v3a1 1 0 0 1-1 0zm211 47a14 14 0 0 1-1-2l2-2v4h-1zM65 149l-2-2 2-1 1 3h-1zm-12 8l-3-1 2-1a23 23 0 0 1 2 2zm6-8l1 2v2l-2-3a1 1 0 0 1 1-1zm155 97l1 3-2-2a2 2 0 0 1 1-1zM162 63c5-1 8 3 11 6l9 6 3 2a4 4 0 0 1 1 4c-1 2-3 4-6 5s-3 1-6-1c-5-6-10-11-17-15-2 0-3-2-2-3 1-4 1-4 4-4a10 10 0 0 0 3 0zm14 21l1-1c1-2 1-3-1-4l-8-7-9-6a2 2 0 0 0-2 1l1 1a77 77 0 0 1 18 16zm-6-12l4 2c-1-3-2-3-4-2zm-6-5v1h5v-1h-5zm14 10h-1l5 1v-1zm-7-7v-1h-4v1h4zm3 4v1a41 41 0 0 0 4 1v-1l-4-1zm4 55l-7-2-13-2h-1c-2-3-5-2-8-1s-6 0-10-2l-7-4c-4-2-7-1-11 0a12 12 0 0 1-11 0l-4-5 1-1 1 1c4 4 7 6 12 3 6-2 11-1 17 2l4 3c3 2 6 2 9 1h8c2 2 6 2 9 2l11 3 1 2a3 3 0 0 0-1 0zm-25-33a10 10 0 0 1 3-7c2-2 5-3 7-3 6 0 10 4 10 9a9 9 0 0 1-9 10c-6 0-11-4-11-9zm11 7c2 0 5-1 6-3s1-3-1-3l-11-5h-2v8c3 2 5 3 8 3zm-5-14l12 6c0-2-1-5-4-6h-8zm-49 3l-7-3c-5-2-6-8-1-13s12-3 14 3a14 14 0 0 1 1 5c0 4-2 8-7 8zm-1-12l-5 1a3 3 0 0 0-1 0c-3 0-3 1-2 3 1 3 4 4 7 5 5 1 7 0 7-5 0-3 0-3-3-4zm4-2a6 6 0 0 0-10 0zm-1-24c3 0 3 0 4 3v1c2 3 1 3-1 4l-13 7-2 1c-2 1-5 0-5-3l1-2 8-7a22 22 0 0 0 3-2c2-2 3-3 5-2zM97 67l1 1 12-6-2-4-11 9zm65-25h-4l-1-1 1-1 1-1 17-1 2 1a6 6 0 0 1-2 1l-14 2zm9 3h-6l-2-1 2-1h12l1 1-1 1h-6z" />
    <path d="M149 204a3 3 0 0 1 3 3 3 3 0 0 1-3 2 3 3 0 0 1-3-2c0-2 2-3 3-3zm94 107c3 0 6 0 8 3 4 4 3 10-3 11-6 2-11 0-16-4-3-2-1-6 1-7 3-2 6-3 10-3zm1 13a1 1 0 0 1 1 0h2l3-3c0-1-1-3-3-3a4 4 0 0 0-1-1c-3 0-7 0-9 2-2 1-2 3 0 3l7 2zm25-52c3 0 4 1 4 3s-1 3-4 3-4-1-4-2c0-2 2-4 4-4zm0 5l2-2-2-1a9 9 0 0 0-2 1 17 17 0 0 1 2 2zM160 101l-1-2c0-1 0-2 2-2a3 3 0 0 1 1 2l-1 2zm-50-17l2 3-2 2-2-3 2-2zm222 53a34 34 0 0 0-4 4 3 3 0 0 0-1 2l1 16c-1 12-4 23-13 31-6 6-13 10-21 12a98 98 0 0 1-31 5c-9-1-18-3-25-7-5 1-3 5-3 8l1 49v11c0 4-1 5-5 6a13 13 0 0 0-3 2l20 6a3 3 0 0 1 0 1 6 6 0 0 1-2 0l-14-4h-2c-1 2 0 3 2 4l13 3 1 1h-2l-13-2c-1 3-1 3 2 3a47 47 0 0 1 7 2l1 1-1 1-8-2c-2 0-2 0-3 2l7 2v2l-7-1c-2-1-2-1-4 1l3 1 2 1a15 15 0 0 1-2 1h-2a51 51 0 0 1-7-1l-8-1c-1 0-3-1-5 1a52 52 0 0 1 6 1l1 1-2 1h-11v1l5 1 1 1-2 1-7-1-4 1v1a24 24 0 0 1 4 0l1 2h-13v1l5 1 1 1-2 1-6-1h-6v1l3 1a25 25 0 0 1 3 0l2 2h-2l-8-1-5 1c2 2 5 0 6 4a44 44 0 0 1-7-1 7 7 0 0 0-7 1l4 1a13 13 0 0 1 2 1l2 1-2 1-7-2c-4-1-7 1-10 2l8 2 2 1a18 18 0 0 1-3 0l-12-1-5 2 12 2a9 9 0 0 1 3 1l1 1-2 1-17-4a4 4 0 0 0-5 2l13 3v1a10 10 0 0 1-2 1l-11-2a6 6 0 0 0-3 1l-3 1 8 1 2 2h-2a200 200 0 0 1-11-2l1-2a185 185 0 0 1-7-2l-16-5-3-1-5-1-8-2-18-3a4 4 0 0 1-2-2l27 3-2-2-15-3-12-3-4-1-1-1h5l21 5a62 62 0 0 0 6 1v-3l-18-4c0-2 1-2 3-2l11 3a18 18 0 0 0 3 0c1-2 0-3-3-3l-10-2h-2a16 16 0 0 1-1-2 5 5 0 0 1 2 0l12 2 1-1a10 10 0 0 0-2-2h-5l-2-2h7l-1-4a41 41 0 0 1-7 2c-4 1-6 4-9 7-1 2-3 2-5 1l-16-4a11 11 0 0 1-3 0 53 53 0 0 0-6-3c-5-1-6-4-7-8l-5-17-5-15a12 12 0 0 1-1-4 2 2 0 0 1 1-1l7-3c2-2 5-2 7-1a350 350 0 0 1 18 5l9 3a2 2 0 0 1 1 2l2 8 5-2 28-11 10-4 1-1c1-2 4-5 4-8a115 115 0 0 0-1-17l-3-37a2 2 0 0 0-1-1l-3 2-1 1v-2l2-2c2-1 3-2 3-4l-2-19v-7H96c-9 1-18 3-27 7a35 35 0 0 0-11 8c6 5 6 10 2 16l3 3a4 4 0 0 0 3 1 24 24 0 0 1 19 3 21 21 0 0 1 8 24v3s1 2 2 1c7-1 9 1 12 7 2 4 2 7 0 10a9 9 0 0 1-6 4 3 3 0 0 1-3-1l-1-3a8 8 0 0 1 0-2c1-3 0-4-3-4a15 15 0 0 0-5 2 3 3 0 0 0-1 2 4 4 0 0 0 3 2c1 0 3-1 3 2 1 5 1 6-2 8l-4 1c-4 2-8 0-11-5l-1-3-11 1c-10 0-20-7-22-17-2-5-2-11 0-16a3 3 0 0 0-1-4 48 48 0 0 1-6-7c0-1-1-2-3-2-4 0-7-2-9-5-3-5-1-13 3-16 3-3 6-1 6 2l1 5c2-13 10-22 19-30a65 65 0 0 1 29-13l23-4h10v-1l-7-2-12-5a3 3 0 0 1-1-2l-2-29a4 4 0 0 0-1-3c-5-2-6-7-6-11l-1-5-2-16c-2-5-2-6 2-8 3-1 3-3 2-5a41 41 0 0 1 0-4c0-3 0-4 3-5l26-14c-3-3-7-6-7-11a15 15 0 0 1 3-10 32 32 0 0 1 0 4l7-1v1l-2 1-3 1a22 22 0 0 0-2 1l3 3c3 1 5-1 5-4a9 9 0 0 1 1-2v6c-2 3-5 3-10 1l1 2 2 3c4 4 4 4 8 2l16-7a4 4 0 0 1 2 0l19 4 35 9 9 2 4-8a12 12 0 0 1 13-4 7 7 0 0 0 2 0l11-1 2 1a13 13 0 0 1-2 1h-9v2a5 5 0 0 1-1 6c-2 2-5 2-8 1-2-1-2-4 0-7a23 23 0 0 1 2-1c-6-1-10 3-11 8-1 2-1 3 2 3l17 5c2 0 4 2 6 4h-1l-24-6 2 8a5 5 0 0 1-2-1l-2-6-2-2-40-10-21-5-4 1c-14 5-26 13-39 19l-5 2a11 11 0 0 0 3 1l35 6 34 8 25 8c5 2 8 0 12-2a160 160 0 0 1 14-10l12-6h2a1 1 0 0 1-1 2c-9 4-17 11-26 16-5 3-7 7-6 13l1 28 1 43v6l8-7 18-13a53 53 0 0 0 6-5l1-2v-6l-5 2-10 5h-2l1-2 13-6 3-2a3 3 0 0 0-1-1l-10 5-5 3h-3l2-2 15-7 2-2h-1l-9 4-8 4h-1a6 6 0 0 1-2 0l1-1 4-2v-1h-2c-3 1-5 0-6-4a25 25 0 0 1 0-3V76c0-3 2-5 4-6l15-8 7-3 1-6c0-2-1-5 2-6l-5-7c4-1 7 1 7 5l-1 14v2c5 3 5 8 5 12v12l-1 17c-1 4-3 6-5 8a4 4 0 0 0-2 2v17a3 3 0 0 1-1 2l-21 17-4 3 8 2 13 2c4 0 5 3 6 6v3a5 5 0 0 0 2 6l18 11c8 5 17 5 26 3 7-1 13-4 18-9 7-6 9-14 9-22v-7h-4c-9 0-16-3-21-10-2-3-3-5-1-7 1-3 3-5 7-6h8l-8-3-12-3c-3 0-4-3-5-5-2-5 0-15 5-19 3-3 7-3 11-1l18 7v-4c1-3 1-3 5-3l20 2c5 1 7 5 8 10a22 22 0 0 1 0 3 5 5 0 0 0 3 4 39 39 0 0 1 8 6l1 3a2 2 0 0 0 2 3l29 11c8 3 17 6 25 11a22 22 0 0 1 5 4c2 2 1 4-1 5-4 2-7 0-11-1l-36-14-16-5h-3a6 6 0 0 1-5 2l-4 1a27 27 0 0 1-5 0zm-133 21c-1 0-3 2-4 1-4-1-6 1-8 3l-2 1v-2a40 40 0 0 1 4-3c-1-2-2-1-3 0l-5 4h-1a5 5 0 0 1 0-1 4 4 0 0 1 1-1l3-4a3 3 0 0 0 0-1l-4 1-5 5h-2-1l3-4v-1l-5 2-3 2 2-3v-1c-2-1-4-2-6 1h-2v-1l1-1c-2-1-3-2-5 0l-1 1v-2a7 7 0 0 1 1-2c-3-3-5 1-8 2v-3a4 4 0 0 1 3-1v-3l-6 5-2 1 1-2 4-5h-2l-5 5h-2l1-2 4-4c-2-2-3-1-5 0a23 23 0 0 1-5 4l-2 1v-1l6-6h-3l-4 4a5 5 0 0 1-2 1v-2l4-4v-1h-3a56 56 0 0 0-5 6 3 3 0 0 1-2 0v-1a10 10 0 0 1 2-2l3-3-1-1a4 4 0 0 0-2 1l-3 3c-1 1-1 2-3 1a6 6 0 0 1 1-3 20 20 0 0 1 4-2l-1-1h-1l-5 4a9 9 0 0 1-2 1 11 11 0 0 1 0-2 36 36 0 0 1 4-4l-7 5 1 2-2 4 1 11 1 23 1 1a23 23 0 0 0 6 1l8-2-1-13h3l18 7c9 3 17 6 26 7 2 1 2 1 3-1 1-3 3-5 7-6a2 2 0 0 0 1 0 10 10 0 0 1 12 1l1 3-2-2c-4-2-7-2-9 0v6l-3 1c-2-1-2-4-2-6l-4 5 9 2c3 1 4 3 4 6l-1 23v6l-2-2a6 6 0 0 1 0-1 7 7 0 0 1-1 0l-1 3c0 2-1 4-3 4l-5 3 3 1a5 5 0 0 0-7 2c4 6 4 6 5 5 0-1 0-2-2-3v-2l2 1 2 2 7-3a126 126 0 0 1-2-5c4 3 4 3 3 5l-1 18-2 1-18-6a9 9 0 0 1-2-3l20 6c1-3 1-4-3-5l-8-2 1-3-2-5a124 124 0 0 0-7 3l3 3-8-2-24-9c-2-1-3 1-4 2l28 10v1h-2l-13-4-11-4c-2-1-5-1-6-4-6 5-6 11 1 14l1 1-2 1c-2 0-4-2-5-4-3-4-2-9 2-12s3-6 3-10c1-10-1-21-1-31l-1-2-7 1c2 3 4 5 2 7-1 2-3 3-5 1-4-2-1-5 0-8h-5l2 29a1 1 0 0 0 0 1c2 6 2 13 2 20v5l1 1 16 6c6 3 13 2 19 7 3-1 5 2 7 3l15 6 20 8 17 6 3 1-1-6-2-33a113 113 0 0 0-2-16l-1-15h1l2 3 1 15 1 9 1 33 2 10 3-3a20 20 0 0 1 10-5 3 3 0 0 0 2-3v-51c-1-5-1-4-5-4h-1a5 5 0 0 0-1-1l1-1a7 7 0 0 1 3-1c2 0 3-1 2-3-3 0-5 2-7 0a18 18 0 0 1 5-2c2 0 2-1 2-3l-6 1h-3a13 13 0 0 1 2-2l7-1v-1l-9 1h-2v-1l6-2 5-1v-1h-4c-2-4-4-6-8-6a8 8 0 0 1-3 0l3-2-2-3a13 13 0 0 1 2-6c2-4 5-8 10-10 3-2 4-5 2-8a9 9 0 0 0-1 1l-18 12c-3 2-4 3-3 7a25 25 0 0 1 0 3v19l1 2v4l-2-2a68 68 0 0 1-1-8l-1-21-6-2c-6-2-12-3-18-7a20 20 0 0 0-5-2l-15-4-12-4-19-5-17-6c2-2 4-1 6 0l19 6c6 1 12 2 17 5a92 92 0 0 0 14 4l17 7 16 5 4-1 18-11 4-4c-3-1-5-1-7 1l-12 8a10 10 0 0 1-3 0l1-2 11-7 2-1-5-1-4 1-13 9-2 1v-2l6-4 7-5v-1a15 15 0 0 0-3 0l-4 3-10 6c-1 1-2 1-3-1l7-4a5 5 0 0 1 1-2c3 0 5-3 7-4v-1l-7 5zm-4-2c2-9 1-18 1-27l-2-29V71l-1-2a51 51 0 0 0-8-3l-27-7-22-6-39-7-8-1v2l2 17 2 16 2 15 2 30a3 3 0 0 0 1 2l9 3 25 8 24 6 12 4 19 5 8 3zm-71 174l-3-14-2-9-5-14-2-2-5-2c-7-4-15-4-23-7a19 19 0 0 0 0 2l5 13 4 11 3 11c0 2 1 3 2 3l14 5 12 3zm-99-72l5 14 6 18c0 3 1 6 4 7l6 2a37 37 0 0 0 5 1l5 1 8 2-3-8-2-11-4-12c-1-3-2-6-6-7h-1c-7-4-15-5-23-7zM240 68a3 3 0 0 0-1 0l-21 9a3 3 0 0 0-1 2 19 19 0 0 0-1 4l-1 19-1 13a43 43 0 0 0 5-1l14-6c3-2 5-4 6-8l1-22V68zM29 178h-1a31 31 0 0 0-2 5c-2 5 0 9 4 11a30 30 0 0 0 10 1c6 0 10 2 13 7a118 118 0 0 0 7 10l7 7c4 5 7 10 13 13 2 2 2 3 1 5l-2 3-1 2c1 3 3 5 5 6 3 1 5-1 7-2l1-1c0-2-1-2-3-2a5 5 0 0 1-3-8c2-3 7-5 11-4s5 3 4 7a11 11 0 0 0-1 3l3-1c3-2 4-4 2-8-2-5-5-7-10-5l-3-2c-4-4-8-8-14-10l-1-2v-2c-5-7-12-12-17-18a7 7 0 0 0-2-2c-2-1-2-2-1-4l3-7c0-6-10-11-15-8l5 2c6 3 9 11 2 16-4 4-9 4-15 2-4-2-6-6-7-11a10 10 0 0 0 0-3zm264-38c4 3 10 3 15 2l3-4a59 59 0 0 1 10-3c2 0 4 0 5 3l2-1c5-4 8-10 9-16v-16c-1-5-3-7-7-7a38 38 0 0 1-5-1l-6-1 4 4c3 6 3 12 1 18-4 10-18 23-31 22zM50 203l-2 2c-4 7-4 14-3 21a18 18 0 0 0 17 14 48 48 0 0 0 10-1l6-2c1-1 1-2-1-3a58 58 0 0 1-4-3c-2-2-3-2-4-1-5 3-9 3-12-2-2-4-3-9-1-14v-2l-6-9zm262-83l-12-4-6-1-1-2 2-1 11 4 7 2 1-5c0-1 0-3-2-3l-10-4a54 54 0 0 1-5-2l-1-1 2-1 4 2 11 4c-6-7-14-9-21-11 2 9-2 14-9 19 9 1 17 4 25 7 1 1 2 0 3-1a12 12 0 0 1 1-2zm-82 64c-2-1-2-2-1-3l8-8-3-2a3 3 0 0 0-4 0c-4 2-7 6-9 10-1 2 0 3 1 4l5 5 2 3c3-1 4 1 6 2h2c0-6 4-12 8-16a30 30 0 0 1-3-3c-2-2-4-1-5 0l-3 3-4 5zm-100-12l1 6 1 1 6 2 15 5c8 4 16 5 24 7v-7c-16-2-31-9-47-14zm276-25l-55-22-2 5 55 20a6 6 0 0 1 0-1l2-2zM143 292c8 7 11 16 8 27 7-1 7-2 9-7v-1c1-8-1-15-7-21l-4-1-6 3zm142-162l4 3c3 3 7 4 12 2 9-3 16-9 19-18 4-9 2-17-9-20-2 3-2 3 1 5l5 6c2 8-2 14-7 20-4 4-10 4-15 3-2 0-4 0-5-3h-3a11 11 0 0 0-2 2zM127 331l3-4 1-3-6-23-2-11-2-2c-2 0-5 4-5 6l2 4 4 14c1 7 2 13 5 19zm41-53a2 2 0 0 0 0-1 39 39 0 0 0-4-1l-9-1-1-2h3l15 2a5 5 0 0 0 4-1 7 7 0 0 0-1-1l-14-2-1-2a10 10 0 0 1 1-1l2 1 12 2c2 0 3 0 2-2l-8-2-6-1-1-1a5 5 0 0 1 1-1l3 1v-1l-5-2c-1 7-6 11-12 11l-8-1-7 4 26 3 8-1zm-15 9c9 8 11 17 9 28a33 33 0 0 1 3-1c5-2 7-5 6-9a63 63 0 0 0-4-13c-1-3-4-5-7-6-2-1-4 1-6 1h-1zm-87 17c3-2 5-4 4-8a72 72 0 0 1-2-8l-2-8-3-14-1-3a30 30 0 0 1-2 0c-4 2-5 3-3 8a96 96 0 0 1 6 22c0 4 2 7 3 11zm225-201l-1-5-4-4a6 6 0 0 0-5 1c-5 2-8 14-4 18a4 4 0 0 0 2 1c6 0 12-6 12-11zM66 195c3 2 5 6 9 7 3 0 6 1 6 5 1 2 0 3-1 5l10 6c2-6 1-12-3-16-6-7-13-9-21-7zm107 115l5-4c3-8 1-18-6-23-3-3-7-2-10 1 9 3 12 17 11 26zm-30 12c4-1 6-3 7-7a22 22 0 0 0-3-13l-5-8a3 3 0 0 0-2-1 58 58 0 0 0-6 2c9 7 11 16 9 27zm112-137l-6-4c-1-1-2-1-3 1a77 77 0 0 0-6 8c-2 5-1 7 3 9l7 3c-1-7 0-13 5-17zm-74 121l3-1c4-1 5-3 4-7l-1-7c-1-3-2-6-5-9-2-3-8-4-10-2 10 8 11 12 9 26zm133-119a46 46 0 0 1-5-2l-4-2c-3-4-6-4-9-1-1 1-2 2-1 3 1 5 4 7 8 9a3 3 0 0 0 3 0l8-7zM98 260c8 3 9 11 11 18l4 2 1-2c1-6 1-11-3-16-5-5-7-7-13-3zm209-89a31 31 0 0 1-3 5c-2 1-1 2 0 3l10 6a3 3 0 0 0 2-1l6-9-15-4zm-45 33v-12-4c0-2-2-2-4-2h-2c-4 4-5 9-5 14l2 2 9 2zm27-3l-7-14-6 1a2 2 0 0 0-2 2c-1 4 1 8 3 11l1 1 11-1zM136 325c4-1 5-2 5-6 1-8-1-16-8-22-2-1-4-1-5 1 7 10 9 17 8 27zm-17-39a26 26 0 0 0-4-2l-19-6c-3-1-7-1-9 3a22 22 0 0 0 2 0l16 5a25 25 0 0 1 4 2c5 2 5 2 10-2zm-60-25l-5-3-18-5c-3-1-6 1-9 3l3 1 9 2 11 4 5 1 4-3zm85-6l-10-3-14-6c-3-1-5 0-5 4h7c8 2 17 7 18 17l2 2h1c-2-5-1-10 1-14zm36 23c9 6 10 15 10 25l7-3a2 2 0 0 0 1-3 38 38 0 0 0-3-7c-3-6-6-10-13-12a11 11 0 0 0-2 0zm-64 2c4-1 6-2 6-6 0-6-1-12-5-16-3-3-8-4-10-2 8 6 11 14 9 24zm196-120a220 220 0 0 1-3 10l11 2a3 3 0 0 0 2-1 201 201 0 0 0 2-10c-4 2-8 0-12-1zm-40 28h-6l-1 1c-2 4-1 9-1 13l1 2 10-1c-3-4-4-10-3-15zm-105 36c-2-4-2-7 0-10 2-2 5-2 7-1 3 2 4 5 3 8s-4 4-8 3c-1 4 0 4 3 4 0-2 1-3 3-3a2 2 0 0 0 1-1c1-1 3-2 4-1l2-1-1-2-1-3-1-3c-1-1-1-2 1-3a12 12 0 0 0 1-2 13 13 0 0 1-3 1h-2c-2-1-3-2-5-1l-3-1-1-1v1c1 2 1 3-1 4a2 2 0 0 0-1 2l-2 1-2 1 2 1 1 2c0 2 2 3 3 5zm-61 54a30 30 0 0 0-3-12c-3-5-8-6-12-3a36 36 0 0 1 4 5l3 6a5 5 0 0 0 2 2l6 2zm179-91a31 31 0 0 0 6 12h1l10-3c-5-3-9-6-10-12l-7 3zM67 273c5 7 9 15 7 24 2 0 4-1 4-3 2-6 0-18-7-22-1-1-2-1-4 1zm245-123v3l1 5 5 1a12 12 0 0 0 3 0c3 0 4-1 4-4a25 25 0 0 0 0-5 2 2 0 0 0-2-1l-11 1zm-74-85c-3-3-6-3-9-1l-4 2-12 7c4 2 4 2 8 1a1 1 0 0 1 0-1l17-8zM116 254c3 3 6 6 7 10l2 12 3-1c4-2 4-3 2-6-1-4-4-8-6-11l-8-4zm-29-99l-3-12-8 2a2 2 0 0 0-1 2 47 47 0 0 0 2 8c1 1 2 2 3 1l7-1zm113 143c3-1 4-1 4-3 1-6-3-12-9-15l-8-3c7 5 11 12 13 21zm17-15h-2c-2-1-3-1-3 2l1 8 2 2c4 1 8-1 10-4a12 12 0 0 0 0-12l-1-1c-2 1-2 2-1 3 2 3 3 5 1 8a6 6 0 0 1-7 2c-2-1-2-3-2-5a12 12 0 0 1 2-3zm-59-1l-25-4c-3-1-5 0-8 2l7 1 17 3c4 1 6-1 9-2zm-52-142a56 56 0 0 1-6 0 3 3 0 0 0-2 1l-1 2a72 72 0 0 0 0 8l2 2h5c0-4-1-9 2-13zm-11 1l-4 1c-5 1-5 1-4 7 0 4 2 5 6 5l2-1a42 42 0 0 1 0-6v-6zm-8 134l9-1-3-6c-5-5-6-5-12-1l3 4 3 4zm237-128l-1-7-2-2-8 3-1 2a36 36 0 0 0 0 5l12-1zM63 163l-4-4-5-2c-3 1-4 4-7 6l6 2 4 2 6-4zm87 93c-1 0-3-2-4 0-2 4-3 8-1 12a3 3 0 0 0 2 2 9 9 0 0 0 11-7l-1-3-2 3c-1 3-3 4-5 3s-3-3-2-6a12 12 0 0 1 2-4zm-28-2l3 2c3 4 7 9 8 14l1 2 2-2v-6c-3-7-8-9-14-10zm10-68v1l1 37c2 0 3 0 3-3l-2-32-2-3zm16 100l-17-3a53 53 0 0 1-8-1h-4c2 2 5 1 6 4a118 118 0 0 1 13 2c3 1 6 0 10-2zm31-99c-1 2 0 6 1 7a50 50 0 0 0 8 2 1 1 0 0 0 1-1c2-1 1-6-2-6l-8-2zM87 57c-3 1-3 2-2 5a102 102 0 0 1 2 11l1 13c1 1 1 4 3 5l-4-34zm-2 220a19 19 0 0 0-1-3c-5-7-5-7-12-4h1l7 10 5-3zM64 150l4 5 3 4c1 1 3-1 4-1l-3-12-8 4zm80 45v7a2 2 0 0 0-1 1v2a3 3 0 0 1-2 1l-1 1 3 3 3 3 2 3 1 1 1-1 2-2 2-2v-1c-2 2-5 2-8 1-2-1-2-3-2-6a19 19 0 0 1 0-3c1-4 5-5 9-2 2 2 3 5 2 8a17 17 0 0 0 3 0v-1l-2-5-1-2a3 3 0 0 1 2-2l-3-1h-3a3 3 0 0 0-1 0c-2 0-5 1-6-3zm67-81h1v-14l2-20c1-3 0-4-3-5v39zm0 167l-14-4 1 1c5 3 8 8 9 14 0 2 1 2 3 2 0-4-1-8 1-13zM37 186l11-1a11 11 0 0 0 1-3l-1-2a12 12 0 0 0-9-1 2 2 0 0 0-1 1l-1 6zm26-35l-7 4c4 1 7 4 8 8l5-3-6-9zm278-38h-1c1 8-2 14-5 21h1c5-5 7-11 7-18l-2-3zM127 295l11-5-6-1-6-1v2l1 5zm23-93c-3 0-5 2-5 4 0 3 2 5 4 5 3 0 4-2 4-5 0-2-1-4-3-4zm190-68c3-1 4-2 5-4a52 52 0 0 0 3-10l-1-2h-1c0 6-2 11-6 16zM223 25l-2-3a20 20 0 0 0-5 3l-1 2h1l4 1 3-3zm0 261l-2-3c-2-1-4 3-4 5a3 3 0 0 0 2 2c2 0 4-2 4-4zm-93 20l3 16c2-3 0-11-3-16zm38-89c2-1 4-2 5 1 1 2 0 3-4 4a5 5 0 0 0 3 0c2 0 4-2 3-4 0-1-1-3-3-3-1-1-3 0-4 2zm-11-69c5 4 11 4 17 5h1l-9-2-9-3zm10 45v1l1 1c4-1 6 0 5 5a18 18 0 0 1 3 1v-4a2 2 0 0 0 0-1 2 2 0 0 0-1-1l-8-2zm-13 66l-2-1-3 4 2 2c2 0 3-2 3-5zM44 167l11 2a45 45 0 0 0-7-4 3 3 0 0 0-4 2zm97 55c0 4 1 6 5 5l1-3-6-2zM39 176l11 2v-1l-10-4-1 3zm3 27l2 3 4-5c-2-2-4-2-6 2zm66-50l-1-10c-2 4-1 8 1 10zm-60 35v-1l-10 1c2 2 8 2 10 0zm140 86l-7-4a24 24 0 0 0-1 4h8zm116-146v-1h-11v1zM82 287h-1v8l3-2-2-6zm38-99h-1v5l3-1c1-2-1-3-2-4zm-54 41l3-3-4-4v1l1 6zm85 0v-5c-2-1-2 1-2 2-1 2 0 3 2 3zm-11-42c-1 3 1 3 3 4 1-3 0-3-3-4zm266-37c1 2 2 2 4 1-2-3-2-3-4-1zM72 293a3 3 0 0 0 1 0l-2-9h-1l2 9zm76-106c-2 0-3 2-2 4 1-1 3-1 2-4zm-16-2h1c1-3 0-3-2-4l1 4z" /></svg>