<svg version="1.1" xmlns="http://www.w3.org/2000/svg" xmlns:xlink="http://www.w3.org/1999/xlink" x="0px" y="0px" viewBox="0 0 150 100" width="150" height="100" enable-background="new 0 0 150 100" xml:space="preserve">
<g fill="#75B72B">
	<g fill="#75B72B">
		<path fill-rule="evenodd" clip-rule="evenodd" d="M58.3,54.8c2.9,1.9,7.6,6.1,8.8,7.7c2.2,2.4,5.8,6.8,6.5,10.5
			c0,0.2,0,0.4-0.1,0.6c-0.1,0.1-0.4,0.2-0.5,0.2c-5.9,0.6-9.4-1.7-11.8-5.6c-1.3-2.2-3.7-8.7-4-12.7c-0.1-0.2,0.1-0.6,0.4-0.7
			C57.8,54.6,58.1,54.6,58.3,54.8L58.3,54.8z M63.3,54.3c1.2,0.4,2.6,0.9,3.4,1.2c2.6,1,4.2,2,6.1,3.3c2.9,2.4,4.7,6.6,3.2,11.3
			c-0.1,0.4-0.4,0.6-0.7,0.6s-0.6-0.2-0.7-0.5c-2.2-5.4-7.4-10.9-12-14.6c-0.4-0.2-0.4-0.6-0.2-1C62.6,54.3,63,54.1,63.3,54.3
			L63.3,54.3z M74.1,76.4c0,0.9,0,1.6-0.1,2.6c-0.1,1.5-0.1,1.5,1,1.5c0.4,0,0.7-0.2,0.7-0.6c0.2-1.9-0.2-4.2,0.5-5.6
			c0.9-1.9,1.3-3,1.8-5.2c2.5-12-11.8-16.8-22.2-18.2c-0.1,0-0.4,0-0.6,0.2c-0.1,0.1-0.2,0.2-0.2,0.5c0.2,5.3,2.2,13,4.2,16.6
			c1.3,2.4,2.7,4.2,5.3,5.8c3.3,2,5.3,1.7,8.8,1.6c0.2-0.1,0.4,0,0.6,0.1C74,76,74.1,76.2,74.1,76.4L74.1,76.4z"/>
		<path d="M75,81c-0.6,0-1,0-1.3-0.3c-0.3-0.3-0.3-0.8-0.2-1.7c0.1-1,0.1-1.7,0.1-2.6c0,0,0-0.1-0.1-0.2
			c0,0,0,0,0-0.1l-0.1,0l-0.1,0l-0.8,0c-3.1,0.1-5.1,0.2-8.3-1.7c-2.6-1.6-4-3.5-5.5-6c-2.1-3.7-4-11.4-4.2-16.8
			c0-0.5,0.2-0.7,0.4-0.9c0.4-0.4,0.8-0.4,1-0.4c4.7,0.6,16.1,2.7,20.9,9.4c1.9,2.7,2.5,5.9,1.8,9.4c-0.5,2.3-1,3.5-1.9,5.3
			c-0.4,0.8-0.4,1.9-0.4,3.1c0,0.8,0,1.6-0.1,2.3C76.2,80.5,75.7,81,75,81z M73.5,75.1c0.2,0,0.4,0.1,0.5,0.2l0.1,0.1l0.3,0.4
			c0.1,0.2,0.2,0.4,0.2,0.7c0,0.9,0,1.6-0.1,2.7c0,0.4-0.1,0.9,0,1c0-0.1,0.8,0,0.8-0.2c0.1-0.7,0.1-1.5,0.1-2.2
			c0-1.3,0-2.6,0.5-3.6c0.8-1.8,1.3-2.9,1.8-5.1c0.7-3.2,0.1-6.1-1.7-8.6c-4.5-6.4-15.6-8.4-20.1-9c0,0-0.1,0-0.2,0.1
			c-0.1,0.1-0.1,0.1-0.1,0.1c0.2,5.1,2.2,12.8,4.1,16.3c1.3,2.4,2.7,4.1,5.1,5.6c3,1.8,4.8,1.7,7.8,1.6l0.7,0
			C73.3,75.1,73.4,75.1,73.5,75.1z M71.2,74.4c-4.6,0-8-1.9-10.4-5.9c-1.4-2.3-3.7-8.7-4.1-12.9c-0.2-0.5,0.2-1.1,0.6-1.3
			c0.4-0.2,0.8-0.2,1.2,0c2.9,1.8,7.7,6.1,9,7.8c1.3,1.4,5.7,6.4,6.6,10.7c0,0.4,0,0.6-0.2,0.9l-0.1,0.1c-0.2,0.2-0.6,0.4-0.8,0.4
			C72.5,74.4,71.8,74.4,71.2,74.4z M57.9,55.2c0,0-0.1,0-0.1,0c-0.1,0-0.1,0.1-0.1,0.2c0.4,4.1,2.7,10.5,4,12.6
			c2.5,4.1,6.2,5.9,11.3,5.3c0,0,0.1,0,0.1-0.1c0-0.1,0-0.1,0-0.3c-0.6-3.2-3.7-7.3-6.4-10.2c-1.2-1.5-5.7-5.7-8.7-7.6
			C58,55.2,58,55.2,57.9,55.2z M75.4,71.2c-0.5,0-0.9-0.3-1.2-0.8c-1.9-4.6-6.3-10-11.9-14.4c-0.3-0.2-0.7-0.6-0.4-1.5l0.1-0.1
			c0.4-0.5,1-0.8,1.6-0.6c1.2,0.3,2.5,0.8,3.5,1.3c2.5,1,4.1,1.9,6.2,3.4c2.8,2.2,5.1,6.4,3.4,11.8C76.4,70.9,75.9,71.2,75.4,71.2z
			 M62.8,54.9c-0.1,0.3,0,0.3,0.1,0.4c5.7,4.6,10.3,10.1,12.2,14.8c0,0,0.1,0.2,0.3,0.2c0,0,0.2,0,0.3-0.3c1.5-4.9-0.6-8.7-3-10.7
			c-2.1-1.4-3.6-2.3-6-3.3c-0.9-0.4-2.3-0.9-3.4-1.2l-0.1,0C63,54.7,62.9,54.8,62.8,54.9z"/>
	</g>
	<g>
		<path fill-rule="evenodd" clip-rule="evenodd" d="M79.4,71.2l-0.5,1.5c1-0.4,4.9-4,5.8-4.8
			c1.3-1.1,2.7-2.4,3.9-3.3c0.4-0.2,0.6-0.2,1-0.1c0.2,0.2,0.4,0.5,0.2,0.9c-0.6,2.7-2.1,5.9-3.2,7.3c-2.5,3.2-4,3.6-8.5,2.7
			c-0.4-0.1-0.6,0.1-0.9,0.4v0.1c-0.1,0.1-0.1,0.4,0,0.6c0.1,0.2,0.2,0.4,0.5,0.4c1.7,0.6,4.7,0.6,6.1,0c5-2.1,7.7-10,8.2-15.7
			c0-0.2,0-0.4-0.1-0.6c-0.1-0.1-0.4-0.2-0.5-0.2c-3.8-0.4-8.2,0.9-11.4,1.9c-0.4,0.1-0.6,0.5-0.5,1l0,0c0.1,0.1,0.2,0.4,0.4,0.4
			c0.2,0.1,0.4,0.1,0.6,0.1c2.5-0.7,4.5-1.6,7.7-1.6c0.1,0,0.2,0,0.2,0c0.4,0.1,0.7-0.1-0.2,0.6l0,0l-6.7,5.9
			c-0.9,0.6-2,1.2-2.1,2.5C79.5,71.1,79.4,71.1,79.4,71.2L79.4,71.2z"/>
		<path d="M81,77.7c-1.2,0-2.4-0.2-3.3-0.5c-0.5,0-0.8-0.5-0.8-0.6c-0.2-0.4-0.2-0.7-0.1-1v-0.1l0.1-0.3
			c0.3-0.3,0.8-0.7,1.4-0.5c1.3,0.3,2.3,0.4,3.1,0.4c2,0,3.1-0.7,4.8-2.9c1-1.2,2.5-4.4,3.1-7.1c0-0.1,0.1-0.2,0-0.3
			c-0.1,0-0.2-0.1-0.4,0.1c-0.6,0.5-1.3,1.1-2,1.7c-0.6,0.5-1.3,1.1-1.9,1.6c-0.5,0.6-4.7,4.5-5.9,4.9l-1,0.4l0.8-2.4
			c0-0.1,0.1-0.2,0.1-0.3c0.2-1.3,1.2-2,2-2.5l0.3-0.2l6.4-5.6c-2.3,0.1-4,0.6-5.8,1.2c-0.4,0.1-0.8,0.2-1.2,0.4l-0.1,0
			c-0.3,0-0.5,0-0.8-0.1c-0.2-0.1-0.4-0.3-0.5-0.4c0,0-0.1-0.1-0.1-0.1l-0.1-0.1l0-0.1c-0.2-0.7,0.2-1.4,0.8-1.6
			c3.6-1.1,7.8-2.3,11.6-1.9c0,0,0,0,0,0c0.2,0,0.6,0.2,0.8,0.4l0.1,0.1c0.2,0.4,0.2,0.6,0.2,0.8c-0.5,6.3-3.4,14-8.5,16.2
			C83.4,77.6,82.3,77.7,81,77.7z M77.7,76.1C77.7,76.1,77.7,76.1,77.7,76.1c0.1,0.2,0.1,0.2,0.1,0.2l0.1,0c1.5,0.6,4.5,0.5,5.8,0
			c4.5-1.9,7.4-9.1,7.9-15.3c0-0.1,0-0.2,0-0.3c0,0-0.1-0.1-0.1-0.1c-3.6-0.3-7.7,0.8-11.2,1.8c-0.1,0-0.2,0.1-0.2,0.3
			c0,0,0,0,0.1,0.1c0,0,0,0,0,0.1l0,0c0.1,0.1,0.2,0.1,0.3,0.1c0.4-0.1,0.7-0.2,1.1-0.3c2-0.6,4-1.3,6.7-1.3l0.4,0c0,0,0.1,0,0.1,0
			c0.1,0,0.5,0,0.6,0.4c0.1,0.4-0.1,0.5-0.8,1.1l-7.1,6.2c-0.8,0.5-1.5,1-1.6,1.9c0,0.2-0.1,0.3-0.2,0.4l0,0.1
			c1.5-1.1,3.7-3.2,4.5-4c0.7-0.6,1.3-1.1,1.9-1.6c0.7-0.6,1.4-1.2,2.1-1.7c0.5-0.4,0.9-0.4,1.4-0.2l0.2,0.1
			c0.3,0.3,0.6,0.7,0.4,1.4c-0.6,2.6-2.1,6-3.3,7.5c-1.9,2.4-3.3,3.3-5.6,3.3c-0.9,0-1.9-0.1-3.4-0.4c-0.1,0-0.2,0-0.3,0.1
			L77.7,76.1C77.7,76.1,77.7,76.1,77.7,76.1z"/>
	</g>
	<g>
		<path d="M71.2,74.4L71.2,74.4c-4.6,0-8-1.9-10.4-5.9c-0.5-0.7-1.1-1.9-1.5-3c-1.3-3.2-2.4-7.1-2.6-9.8
			c-0.1-0.2,0-0.5,0.1-0.8c0.1-0.2,0.3-0.4,0.5-0.5c0.4-0.2,0.8-0.2,1.2,0c2.9,1.8,7.7,6.1,9,7.8c0.8,0.8,1.9,2.2,3,3.6
			c1.9,2.4,3.2,5,3.6,7.1c0,0.4,0,0.6-0.2,0.9l-0.1,0.1c-0.2,0.2-0.6,0.4-0.8,0.4C72.5,74.4,71.8,74.4,71.2,74.4z M57.9,55.2
			c0,0-0.1,0-0.1,0c-0.1,0-0.1,0.1-0.1,0.2c0.3,2.7,1.3,6.6,2.6,9.7c0.4,1,0.9,2.2,1.4,2.9c2.6,4.2,6.2,5.9,11.3,5.4
			c0,0,0.1,0,0.1-0.1c0-0.1,0-0.1,0-0.3c-0.4-1.8-1.7-4.3-3.5-6.6c-1-1.4-2.1-2.7-2.9-3.5c-1.2-1.6-5.7-5.7-8.7-7.6
			C58,55.2,58,55.2,57.9,55.2z"/>
	</g>
	<g>
		<path d="M75.4,71.2c-0.5,0-0.9-0.3-1.2-0.8c-0.6-1.4-1.3-2.7-2.2-4c-2.4-3.8-6-7.5-9.7-10.4
			c-0.3-0.2-0.7-0.6-0.4-1.5l0.1-0.1c0.4-0.5,1-0.8,1.6-0.6c1.2,0.3,2.5,0.8,3.5,1.3c2.5,1,4.1,1.9,6.2,3.4c2.5,2.1,3.9,5,3.9,8.1
			c0,1.3-0.2,2.6-0.5,3.7C76.4,70.9,75.9,71.2,75.4,71.2z M62.8,54.9c-0.1,0.3,0,0.3,0.1,0.4c3.8,2.9,7.4,6.8,10,10.7
			c0.9,1.4,1.6,2.8,2.2,4.2c0,0.1,0.1,0.2,0.3,0.2c0,0,0.2,0,0.3-0.3c0.3-1,0.5-2.2,0.5-3.4c0-2.8-1.3-5.4-3.5-7.3
			c-2.1-1.4-3.6-2.3-6-3.3c-0.9-0.4-2.3-0.9-3.4-1.2l-0.1,0C63,54.7,62.9,54.8,62.8,54.9z"/>
	</g>
	<g>
		<path d="M115.9,68.8h-21c-0.9,0-1.5-0.7-1.5-1.5s0.7-1.5,1.5-1.5h21c0.9,0,1.5,0.7,1.5,1.5S116.7,68.8,115.9,68.8z
			"/>
	</g>
	<g>
		<path d="M55.1,68.8h-21c-0.9,0-1.5-0.7-1.5-1.5s0.7-1.5,1.5-1.5h21c0.9,0,1.5,0.7,1.5,1.5S56,68.8,55.1,68.8z"/>
	</g>
	<g>
		<path d="M92.3,85.9H57.6c-0.9,0-1.5-0.7-1.5-1.5s0.7-1.5,1.5-1.5h34.7c0.9,0,1.5,0.7,1.5,1.5S93.2,85.9,92.3,85.9z
			"/>
	</g>
	<g>
		<path d="M111.8,64c-0.1,0-0.2,0-0.3,0c-0.8-0.2-1.4-1-1.2-1.8c0.6-2.9,0.9-5.7,0.9-8.3c0-20.2-16.3-36.6-36.2-36.6
			S38.8,33.6,38.8,53.8c0,3.1,0.3,5.7,0.9,8.1c0.2,0.8-0.3,1.7-1.1,1.9c-0.9,0.2-1.7-0.3-1.9-1.1c-0.7-2.7-1-5.6-1-8.9
			c0-21.9,17.6-39.7,39.3-39.7s39.3,17.8,39.3,39.7c0,2.8-0.3,5.9-1,9C113.2,63.5,112.5,64,111.8,64z"/>
	</g>
	<g>
		<path d="M75,55.3c-0.4,0-0.8-0.1-1.1-0.4c-0.6-0.6-0.6-1.6,0-2.2L88.4,38c0.6-0.6,1.6-0.6,2.2,0s0.6,1.6,0,2.2
			L76.1,54.9C75.8,55.2,75.4,55.3,75,55.3z"/>
	</g>
	<g>
		<path d="M75,55.3c-0.4,0-0.8-0.2-1.1-0.5l-9.7-9.8c-0.6-0.6-0.6-1.6,0-2.2c0.6-0.6,1.6-0.6,2.2,0l9.7,9.8
			c0.6,0.6,0.6,1.6,0,2.2C75.8,55.2,75.4,55.3,75,55.3z"/>
	</g>
	<g>
		<path d="M43.8,55.3h-2.5c-0.9,0-1.5-0.7-1.5-1.5c0-0.9,0.7-1.5,1.5-1.5h2.5c0.9,0,1.5,0.7,1.5,1.5
			C45.4,54.6,44.7,55.3,43.8,55.3z"/>
	</g>
	<g>
		<path d="M75,23.9c-0.9,0-1.5-0.7-1.5-1.5v-2.5c0-0.9,0.7-1.5,1.5-1.5s1.5,0.7,1.5,1.5v2.5
			C76.5,23.2,75.9,23.9,75,23.9z"/>
	</g>
	<g>
		<path d="M108.6,55.3H106c-0.9,0-1.5-0.7-1.5-1.5c0-0.9,0.7-1.5,1.5-1.5h2.6c0.9,0,1.5,0.7,1.5,1.5
			C110.2,54.6,109.5,55.3,108.6,55.3z"/>
	</g>
	<g>
		<path d="M75,21.4c-0.4,0-0.8-0.2-1.1-0.5c-0.3-0.3-0.4-0.7-0.4-1.1c0-0.4,0.2-0.8,0.5-1.1c0.5-0.5,1.6-0.6,2.2,0
			c0.3,0.3,0.5,0.6,0.5,1.1c0,0.4-0.2,0.8-0.5,1.1C75.8,21.3,75.4,21.4,75,21.4z"/>
	</g>
	<g>
		<path d="M91.8,26c-0.9,0-1.5-0.7-1.5-1.5s0.7-1.6,1.5-1.6s1.5,0.6,1.5,1.5v0.1C93.4,25.3,92.7,26,91.8,26z"/>
	</g>
	<g>
		<path d="M104.1,38.4c-0.4,0-0.8-0.2-1.1-0.4c-0.3-0.3-0.4-0.7-0.4-1.1c0-0.4,0.2-0.8,0.4-1.1
			c0.6-0.6,1.6-0.6,2.2,0c0.3,0.3,0.5,0.7,0.5,1.1c0,0.4-0.2,0.8-0.4,1.1C104.9,38.2,104.5,38.4,104.1,38.4z"/>
	</g>
	<g>
		<path d="M58.2,26c-0.9,0-1.5-0.7-1.5-1.5s0.7-1.6,1.5-1.6c0.9,0,1.5,0.6,1.5,1.5v0.1C59.7,25.3,59,26,58.2,26z"/>
	</g>
	<g>
		<path d="M45.9,38.4c-0.9,0-1.6-0.7-1.6-1.5c0-0.9,0.6-1.5,1.5-1.5h0.1c0.9,0,1.5,0.7,1.5,1.5
			C47.5,37.7,46.8,38.4,45.9,38.4z"/>
	</g>
	<g>
		<path d="M104.2,38.4c-0.9,0-1.7-0.7-1.7-1.5c0-0.9,0.6-1.5,1.4-1.5h0.2c0.9,0,1.5,0.7,1.5,1.5
			C105.7,37.7,105,38.4,104.2,38.4z"/>
	</g>
</g>
</svg>