<svg xmlns="http://www.w3.org/2000/svg" xmlns:xlink="http://www.w3.org/1999/xlink" width="157.48" height="38.636" viewBox="0 0 157.48 38.636">
    <defs>
        <linearGradient id="logo-gradient" x1="0.5" y1="1" x2="0.5" gradientUnits="objectBoundingBox">
            <stop offset="0" stop-color="#8b8291" />
            <stop offset="0.75" stop-color="#8b8291" stop-opacity="0" />
        </linearGradient>
    </defs>
    <g transform="translate(0.01 0.015)">
        <g transform="translate(10.616 33.152)">
            <path style="fill-rule: evenodd;" d="M63.714,193.578a2.511,2.511,0,0,0-1.714.632l.365.543a1.863,1.863,0,0,1,1.345-.514,1.933,1.933,0,0,1,1.908,1.693h-2.2v.651h2.2a1.933,1.933,0,0,1-1.9,1.69,1.858,1.858,0,0,1-1.345-.514L62,198.3a2.475,2.475,0,0,0,1.714.641,2.683,2.683,0,1,0,0-5.366Zm6.737,4.323c0,.267-.117.418-.374.418a1.253,1.253,0,0,1-.607-.161l-.009.624a1.678,1.678,0,0,0,.794.161c.454,0,.874-.2.874-.98v-3.735h1.933v4.662h.686v-5.258h-3.3Zm7.831-1.676h1.782v-.571H78.282v-1.417h1.782v-.605H77.609v5.258h2.61v-.6H78.282Zm9.152-2.593H86.68l-2.13,2.816v-2.816h-.686v5.258h.686v-1.426l.7-.919,1.606,2.345h.758l-1.988-2.861Zm3.438.615H92.04v4.643h.686v-4.643h1.153v-.615h-3Zm7.432-.615h-.953v5.258h.686v-1.6h.276c1.337,0,2.184-.7,2.184-1.818s-.852-1.836-2.189-1.836Zm0,3.066h-.276v-2.451H98.3c.972,0,1.5.437,1.5,1.22s-.531,1.231-1.495,1.231Zm8.258-3.119a2.682,2.682,0,1,0,2.657,2.682A2.682,2.682,0,0,0,106.562,193.578Zm0,4.7a2.02,2.02,0,1,1,1.925-2.014,1.947,1.947,0,0,1-1.925,2.014Zm8.943-2.622h-1.952v-2.022h-.686v5.258h.686v-2.674H115.5v2.674h.686v-5.258H115.5Zm7.128,0h-1.952v-2.022H120v5.258h.686v-2.674h1.952v2.674h.686v-5.258h-.686Zm5.493-.418h-.276v-1.6h-.686v5.258h.953c1.337,0,2.184-.713,2.184-1.836s-.838-1.827-2.175-1.827Zm0,3.047h-.276v-2.458h.276c.963,0,1.5.446,1.5,1.231s-.526,1.219-1.5,1.219Zm2.835.615h.686v-5.267h-.686Zm5.222-2.665h1.782v-.579h-1.782v-1.417h1.782v-.605h-2.459v5.258h2.612v-.6h-1.935Zm13.2-1.988a1.849,1.849,0,0,1,1.345.514l.365-.543a2.487,2.487,0,0,0-1.714-.632,2.683,2.683,0,1,0,0,5.366,2.453,2.453,0,0,0,1.714-.641l-.365-.535a1.842,1.842,0,0,1-1.345.514,2.021,2.021,0,0,1,0-4.038Zm8.659-.7-2.79,3.637.009-.384v-3.162h-.686v5.313c0,.036.027.053.053.017l2.79-3.646-.009.384v3.181h.686v-5.33c0-.036-.024-.053-.051-.017Zm3.921,5.356h.686v-4.662h1.933v-.6h-2.617Zm7.068-5.366c-.009,0-.017,0-.027.027l-1.978,5.339h.713l.329-.936h1.928l.329.936h.713l-1.978-5.339c-.009-.033-.017-.033-.027-.033Zm.776,3.837h-1.543l.571-1.632.2-.6.2.6Zm5.608-3.743h-.953v5.258h.686v-1.6h.276c1.337,0,2.184-.7,2.184-1.818s-.862-1.829-2.2-1.829Zm0,3.066h-.276V194.24h.276c.972,0,1.5.437,1.5,1.22s-.542,1.237-1.5,1.237Zm6.367-.473h1.782v-.564H181.78v-1.417h1.782v-.605H181.1v5.258h2.612v-.6h-1.935Zm5.313-1.978h1.167v4.643h.686v-4.636H190.1v-.615h-3.025Zm10.266-.615v5.258h.686v-5.251Zm-2.835,1.6h-.276v-1.589h-.686v5.258h.953c1.337,0,2.184-.713,2.184-1.836s-.843-1.827-2.189-1.827Zm0,3.047h-.276v-2.442h.276c.963,0,1.5.446,1.5,1.231s-.54,1.219-1.512,1.219Z" transform="translate(-62 -193.514)" />
        </g>
        <g transform="translate(-0.01 2.727)">
            <path style="fill-rule: evenodd;" d="M38.426,16.064,30.22,27.288,21.983,16.064c-.094-.093-.187-.062-.187.062V34.807h2.9V25.672l-.031-1.585,5.43,7.432a.12.12,0,0,0,.218,0l5.428-7.433-.031,1.585v9.142h2.9V16.13C38.613,15.995,38.518,15.969,38.426,16.064ZM9.394,32.174a6.3,6.3,0,0,1-6.24-6.53,6.3,6.3,0,0,1,6.24-6.53h.324V16.286H9.392A9.356,9.356,0,1,0,9.392,35h.331V32.162q-.165.007-.331.007Zm53.6-14.152a10.672,10.672,0,0,1-.951,2.943,6.67,6.67,0,0,1,1.788,4.672,6.341,6.341,0,0,1-4.184,6.2l-.518-.761H56.216l-.476.794a6.336,6.336,0,0,1-4.273-6.232,6.423,6.423,0,0,1,3.356-5.848,8.451,8.451,0,0,0-1.985-2.134,9.271,9.271,0,0,0-4.521,7.98,9.329,9.329,0,1,0,18.658,0,9.255,9.255,0,0,0-3.98-7.615Zm49.575-1.959-9.423,11.415.031-1.585V16.466h-2.932V35.061c0,.125.094.187.187.062l9.454-11.442-.024,1.649v9.483h2.9V16.13C112.756,15.995,112.662,15.938,112.57,16.064Zm-22.819.4H86.506l-6.958,9.265V16.468h-2.9V34.807h2.9V30.023L81.8,27.038l5.461,7.773H90.47l-7.053-9.948Zm58.316,0V34.807h2.9V18.986h6.513V16.468ZM133.1,23.4h-6.273V16.468h-2.9V34.807h2.9V25.826H133.1v8.986H136V16.473h-2.9Z" transform="translate(0 -15.994)" />
        </g>
        <g transform="translate(51.842 -0.016)">
            <path style="fill-rule: evenodd; fill: url(#logo-gradient);" d="M309.573,17.246s-5.061-1.3-3.755-5.827-1.124-6.043-3.184-7.752C301.922,3.08,305.341.05,308.959,0a7.112,7.112,0,0,1,5.054,1.765c.32.274.686.355.746.723.01.069-.915.833-.946,1.224C313.244,11.114,306.186,12.344,309.573,17.246Z" transform="translate(-302.538 0.006)" />
        </g>
    </g>
</svg>